<?xml version="1.0" encoding="utf-8"?>
<!-- Generator: Adobe Illustrator 27.5.0, SVG Export Plug-In . SVG Version: 6.00 Build 0)  -->
<svg version="1.1" id="Calque_1" xmlns="http://www.w3.org/2000/svg" xmlns:xlink="http://www.w3.org/1999/xlink" x="0px" y="0px"
	 viewBox="0 0 1366 768" style="enable-background:new 0 0 1366 768;" xml:space="preserve">
<style type="text/css">
	.st0{fill:#A1C3CE;stroke:#A1C3CE;stroke-miterlimit:10;}
	.st1{fill:#A85217;}
	.st2{fill:#30642B;}
	.st3{fill:#437835;}
	.st4{fill:#157D35;stroke:#157D35;stroke-miterlimit:10;}
</style>
<rect x="1.5" y="1.5" class="st0" width="1364" height="766"/>
<g>
	<path class="st1" d="M48.96,196.67c4.79-0.57,9.75-1.12,14.86-1.66c5-2.5,8.74-6.65,14.62-9.55c9.88-4.87,23.71-4.09,34.16-2.72
		c10.45,1.36,30.3-7.34,65.51-11.12c35.21-3.79,61.16,4.05,66.22,9.16c2.31,2.33,13.22,4.61,24.4,6.4c8.49,1.36,14.42,4.47,16.7,8.1
		c18.31,2.42,29.81,5.41,40.93,9.23c4.19-0.78,10.46-1.32,19.7-1.75c25.67-1.19,28.89,7.44,25.85,1.66c-0.8-1.53,4.11-0.51,9.6-0.82
		c5.12-0.28,16.16-3.17,19.78-3.75c5.98-0.95,22.86-4.32,32.96,2.17c3.91,2.52,12.74,2.42,20.62,1.47l17.7-1.24
		c7.25-0.88,18.07,0.38,22.77,2.65l20.04,9.66c1.64,0.79,2.32,1.61,1.96,2.36c-0.37,0.75-0.63,1.58-0.68,2.46
		c29.95-3.84,63.65-8.04,99.15-12.27c0.77-5.06,2.86-7.17,15.18-9.59c12.64-2.48,12.03,5.76,12.02,0.29c0-1.45,1.83-2.78,4.54-3.36
		c2.53-0.54,8.84-1.86,10.73-2.61c3.12-1.24,12.08-5.39,15.31,0.42c1.25,2.25,5.52,1.71,9.55,0.37l8.82-2.12
		c3.7-1.23,8.6-0.56,10.29,1.41l4.19,4.87c17.12-1.86,34.27-3.66,51.27-5.36c0.83-4.72,3.18-6.76,15.11-9.11
		c12.64-2.48,12.03,5.76,12.02,0.29c0-1.45,1.83-2.78,4.54-3.36c2.53-0.54,8.84-1.86,10.73-2.61c3.12-1.24,12.08-5.39,15.31,0.42
		c1.25,2.25,5.52,1.71,9.55,0.37l8.82-2.12c3.7-1.23,8.6-0.56,10.29,1.41l5.31,6.17c5.03-4.62,11.92-5.73,16.66-4.16
		c10.77,3.58,11.17,2.93,13.34-2.45c0.57-1.42,2.96-2.56,5.94-2.88c2.78-0.3,4-3.15,7.51-2.53c3.6,0.64,8.17,4.79,19.74,2.78
		c4.47-0.78,4.91,2.19,9.52,1.25l9.79-1.27c4.24-0.86,8.93,0.24,9.86,2.33l0.64,1.45c43.84-1.53,76.56-0.34,90.17,4.97
		c0.8,0.31,1.62,0.61,2.45,0.92l13.71-2.36c5.9-1.47,13.59-0.95,18.55,0.97c2.64-2.88,11.59-4.22,34.71-4.91
		c33.75-1.02,38.62,9.17,34.2,2.34c-1.17-1.81,2.94-3.17,10.15-3.44c6.73-0.26,23.51-0.86,28.25-1.49
		c7.82-1.03,29.82-4.74,43.6,3.04c5.34,3.01,16.97,3.04,27.29,2.04l23.25-1.19c9.49-0.92,23.85,0.72,30.21,3.45l27.11,11.65
		c0.08,0.04,0.15,0.07,0.24,0.11c28.48-13.23,43.95-10.71,61.08-0.32c1.78,1.08,3.89,1.76,6.22,2.11v7.97
		c0.81-0.06,1.43-0.11,1.86-0.14l0.72-133.98c0,0-5.97,0.57-16.74,1.61l-2.09-2.96c-1.03-1.45-6.65-2.09-11.83-1.33l-11.9,1.22
		c-5.63,0.82-11.13,1.07-11.47-0.57c-0.88-4.23-5.71-5.51-25.82-1.33c-2.95,0.61-3.77,1.75-7.15,2.05
		c-3.62,0.32-6.57,1.21-7.33,2.24c-2.87,3.89,2.23-1.95-14.53-0.59c-21.09,1.71-21.08,3.59-27.07,10.04
		c-1.57,1.69-3.48,2.72-5.39,3.47c-4.69-1.69-5.53-4.14-5.22-6.09c0.09-0.58-0.65-1.1-2.12-1.47l-17.94-4.55
		c-4.2-1.07-12.88-0.65-18.24,0.88l-13.33,3.08c-5.83,1.66-12.62,2.81-16.28,1.46c-9.45-3.47-18.35-3.74-36.74,3.26
		c-2.7,1.03-1.56,2.14-5.43,2.97c-4.16,0.89-6.3,2.16-5.29,3.17c3.83,3.82-0.87-2.05-20.36,1.97c-19.9,4.1-21.22,5.94-18.49,9.97
		c-8.13-2.11-16.92-1.46-32.65,4.54c-1.17,0.44-1.61,0.9-2.06,1.35c-29.67,3.27-59.14,6.6-87.4,9.91l-3.67-3.77
		c-1.36-1.4-7.1-1.76-12.07-0.76l-11.55,1.78c-5.41,1.08-10.82,1.59-11.54-0.02c-1.85-4.17-6.96-5.21-25.98-0.1
		c-2.79,0.75-3.35,1.92-6.64,2.38c-3.53,0.49-6.25,1.52-6.77,2.58c-1.96,4.01,1.77-2.05-14.59,0.1c-20.58,2.7-20.13,4.58-24.6,11.27
		c-0.36,0.54-0.77,1.01-1.21,1.44c-2.25,0.31-4.46,0.62-6.64,0.93c-2.4-1.37-3.2-3.04-3.31-4.47c-0.04-0.59-0.9-1.06-2.44-1.36
		l-18.89-3.67c-4.43-0.86-12.96-0.03-17.94,1.74l-12.55,3.69c-5.42,1.93-11.9,3.4-15.85,2.23c-10.2-3-19.12-2.85-35.78,4.99
		c-2.45,1.15-1.05,2.2-4.72,3.22c-3.93,1.09-5.77,2.44-4.53,3.4c4.69,3.62-1.34-2-19.8,2.93c-23.22,6.2-19.17,7.62-12.97,13.9
		c0.79,0.8,1.14,1.5,1.2,2.13c-18.48,2.96-39.12,5.79-60.43,8.3c-0.71-2.61-6.62-3.58-24.26-2.4c-3.21,0.22-4.7,1.2-8.13,1.06
		c-3.68-0.15-7.05,0.33-8.41,1.22c-5.15,3.37,3.34-1.59-13.59-2.41c-21.3-1.03-22.45,0.78-32.17,6.21
		c-2.54,1.42-5.02,2.17-7.31,2.65c-3.46-2.22-2.76-4.68-1.26-6.51c0.45-0.55,0.05-1.14-1.13-1.68l-14.42-6.65
		c-3.38-1.56-11.96-2.26-18.05-1.47l-14.7,1.26c-6.62,0.85-13.85,1.1-16.54-0.66c-6.94-4.53-15.32-5.92-37.28-1.53
		c-3.22,0.65-2.81,1.86-7.05,2.17c-4.54,0.33-7.38,1.27-7.03,2.37c1.33,4.15,0.42-2.08-20.77-0.69c-1.85,0.12-3.54,0.24-5.12,0.37
		c-35.8-11.85-75.04-27.61-129.52-38.61c-0.65-2.22-5.32-4.06-10.41-3.96l-12.18-0.53c-0.77,0.02-1.54,0.02-2.28,0
		c-0.2-0.03-0.4-0.07-0.61-0.1c-2.09-0.33-4.22-0.65-6.36-0.96c-1.1-0.5-1.66-1.18-1.41-2.12c1.77-6.63-2.09-9.56-23.97-7.23
		c-3.21,0.34-4.7,1.91-8.13,1.69c-3.68-0.24-7.05,0.53-8.41,1.94c-0.28,0.29-0.52,0.54-0.72,0.76c-0.55-0.05-1.1-0.1-1.64-0.15
		c-0.62-1.46-2.7-3.78-11.22-4.44c-12.32-0.95-17.89-0.38-22.28,1.93c-6.62-0.41-13.26-0.77-19.88-1.09l-14.13-10.34
		c-3.38-2.47-11.96-3.58-18.05-2.34l-14.7,2.01c-6.62,1.36-11.74,3.7-18.2,2.88c-12.84-1.63-5.76-6.98-27.72,0
		c-3.22,1.02-8.66-1.47-12.89-0.97l-2.79,0.68c-4.54,0.53-2.68,0.53-6.29,1.14c-9.83,1.68,0.42-3.3-20.77-1.1
		c-12.81,1.33-22.04,3.69-26.6,6.55c-5.71,0.15-8.88,0.26-8.88,0.26v93.68v9.23c0,0,19.53-4.05,50.94-8.46
		C29.69,194.46,36.32,195.03,48.96,196.67z"/>
	<path class="st2" d="M1322.54,164.98c-6.44-4.2-20.98-6.73-30.59-5.31l-23.54,1.84c-10.45,1.54-22.23,1.5-27.63-3.13
		c-13.95-11.97-36.23-6.27-44.15-4.68c-4.79,0.96-21.79,1.9-28.6,2.29c-7.31,0.42-11.47,2.52-10.28,5.3
		c4.48,10.51-0.45-5.16-34.63-3.6c-23.42,1.07-32.48,3.13-35.15,7.56c-5.02-2.94-12.81-3.74-18.78-1.49l-13.88,3.64
		c-0.84-0.47-1.68-0.94-2.48-1.41c-13.78-8.16-46.92-9.99-91.31-7.64l-0.65-2.22c-0.94-3.21-5.69-4.91-9.98-3.58l-9.91,1.96
		c-4.67,1.45-5.11-3.12-9.64-1.92c-11.72,3.11-16.34-3.28-19.99-4.27c-3.55-0.96-4.78,3.43-7.6,3.89c-3.02,0.49-5.44,2.24-6.02,4.43
		c-2.2,8.27-2.6,9.27-13.51,3.76c-4.8-2.42-11.78-0.71-16.87,6.4l-5.38-9.49c-1.71-3.02-6.67-4.05-10.42-2.16l-8.94,3.26
		c-4.08,2.05-8.4,2.89-9.67-0.57c-3.27-8.93-12.34-2.55-15.5-0.64c-1.91,1.15-8.3,3.18-10.87,4.01c-2.75,0.89-4.6,2.94-4.6,5.17
		c0.02,8.42,0.63-4.26-12.17-0.44c-12.08,3.6-14.46,6.75-15.3,14.01c-17.21,2.63-34.58,5.4-51.92,8.25l-4.24-7.48
		c-1.71-3.02-6.67-4.05-10.42-2.16l-8.94,3.26c-4.08,2.05-8.4,2.89-9.67-0.57c-3.27-8.93-12.34-2.55-15.5-0.64
		c-1.91,1.15-8.3,3.18-10.87,4.01c-2.75,0.89-4.6,2.94-4.6,5.17c0.02,8.42,0.63-4.26-12.17-0.44c-12.48,3.72-31.96,8.49-32.73,16.26
		c-33.41,3.83-54.61,5.33-83.05,10.84c-3.46,0.67,0.13,4.46,0.68,2.78c0-0.01,0.01-0.02,0.01-0.03c0.37-1.14-0.32-2.41-1.98-3.63
		l-20.29-14.86c-4.76-3.48-15.72-5.42-23.06-4.07l-17.93,1.91c-7.98,1.47-16.92,1.6-20.88-2.26c-10.22-9.98-27.31-4.81-33.37-3.34
		c-3.67,0.89-16.6,1.93-21.78,2.37c-5.56,0.47-5.44,2.57-7.97,4.66c-6.9,5.69-0.18-4.39-26.18-2.56c-9.36,0.66-33.5-1.31-34.65,3.89
		c13.75,7.18,41.62,15.05,66.07,26.74c3.51,0.41,6.44,2.02,9.66,4.48c3.21,1.45,6.58,2.92,10.15,4.44c2.5,1.06,5.03,2.08,7.55,3.1
		c7.58-0.92,16.39-4.91,25.38-6.24c14.44-2.14,24.88,4.42,31.76,10.34c6.88,5.92,34.51,2.99,68.5,12.43
		c22.1,6.13,34.62,16.85,40.03,25.93c70.52,11.24,141.41,17.46,203.72,28.6c31.84,5.69,60.2,5.87,85.55,2.72
		c-2.6-2.78-2.29-6.46,0.86-9.51c3.22-3.1-0.59-6.22,0.7-9.71c8.82-23.77,20.82-24.41,40.29-15.61c7.55,3.41,13.83-1.1,17.82-6.98
		l10.63-11.29c3.66-5.4,13.92-8.04,21.57-5.55l32.65,10.64c1.46,0.48,2.71,1.13,3.75,1.9c5.85-3,11.35-5.76,16.53-8.11
		c8.92-4.05,29.99-8.9,58.08-14.07c1.14-0.46,2.32-0.93,3.58-1.42c6.79-2.6,12.23-2.83,16.4-2.12c2.85-0.49,5.75-0.98,8.7-1.47
		c-0.42-3.11,2.04-6.17,6.49-7.99c4.76-1.94,3.11-5.86,6.34-8.69c22.02-19.28,33.37-16.51,46.01-3.04c4.9,5.22,13.3,2.85,20.39-1.41
		l16.35-7.36c6.52-3.92,17.45-3.47,22.98,0.95l10.61,8.46c16.86-2.28,33.57-4.48,49.68-6.57c2.79-1.05,5.84-2.13,9.23-3.25
		c12.77-4.22,22.2-3.42,28.63-1.58c2.77-0.35,5.5-0.69,8.2-1.03c0,0,0,0,0,0c-2.3-4.48,1.29-9.2,8.75-11.83
		c6.87-2.42,4.49-7.3,9.15-10.83c1.47-1.11,2.89-2.14,4.29-3.14c-0.01-0.11-0.01-0.22-0.02-0.33L1322.54,164.98z"/>
	<path class="st3" d="M1395.14,198.25v-7.97c-2.32-0.35-4.44-1.03-6.23-2.11c-15.53-9.4-29.69-12.36-53.37-3.04
		c-3.6,1.42-5.08,3.52-5.2,5.69c-0.01,0.12-0.04,0.24-0.1,0.36c-0.89,1.79-2.84,4.73-3.33,7.94c-0.41,0.13-0.84,0.26-1.34,0.37
		c-7.38,1.71-10.92,4.78-8.65,7.69c0,0,0,0,0,0c-2.67,0.22-4.96-1.09-7.7-0.87c-6.36-1.2-16.09-0.18-28.71,2.56
		c-3.35,0.73-6.36,1.43-9.12,2.11c-15.93,1.35-25.82,2.19-42.49,3.68l-12.34-6.52c-5.47-2.87-21.06-1.55-27.51,1l-16.16,4.79
		c-7.01,2.77-9.86,3.29-14.7-0.11c-12.5-8.76-29.17-9.53-50.95,3c-3.2,1.84-1.56,4.38-6.27,5.65c-4.41,1.18-6.84,3.17-6.42,5.19
		c-2.91,0.32-5.78,0.64-8.6,0.95c-4.13-0.46-9.5-0.31-16.22,1.38c-1.25,0.31-2.41,0.62-3.54,0.92c-27.77,3.36-48.6,6.51-57.42,9.15
		c-5.12,1.53-10.56,3.32-16.35,5.28c-1.02-0.5-2.26-0.92-3.71-1.23l-32.28-6.92c-7.57-1.62-17.71,0.09-21.33,3.6l-10.51,7.34
		c-3.94,3.82-10.15,6.75-17.61,4.54c-19.25-5.72-31.12-5.31-39.83,10.15c-1.28,2.27,2.49,4.3-0.69,6.31
		c-2.18,1.39-2.96,2.97-2.36,4.42l-104.01-2.32c-56.32-5.87-118.54-9.79-180.49-16.29c-5.34-5.9-17.73-12.87-39.57-16.86
		c-33.61-6.13-60.92-4.23-67.72-8.08c-6.8-3.85-17.12-8.11-31.4-6.72c-8.89,0.86-17.59,3.46-25.09,4.06c-2.5-0.66-5-1.32-7.47-2.01
		c-3.54-0.99-6.87-1.95-10.04-2.89c-3.18-1.6-6.07-2.65-9.55-2.91c-24.17-7.6-37.19-13.51-50.79-18.17l-1.2-0.54
		c-0.39-0.18-0.9-0.28-1.45-0.28c-1.83,0-6.27-0.1-9.22-1c-11.13-3.82-22.66-6.81-41-9.23c-2.28-3.63-8.23-6.74-16.73-8.1
		c-11.2-1.79-22.13-4.07-24.44-6.4c-5.06-5.11-31.06-12.95-66.33-9.16c-5.93,0.64-11.42,1.41-16.51,2.26
		c-3.7-1.28-7.77-2.66-12.37-4.2c-69.08-23.1-103.27-5.66-112.31-10.14c-17.38-8.62-46.25,11.56-64.12,11.48l-0.37,37.37
		c-0.01,0-0.05,0.01-0.05,0.01v5.09l-0.37,37.34c0.13,0.01,0.25,0.03,0.37,0.05v7.79l-0.86-0.02l0.86,516.52h1422.56V297.78
		c0.24,0.04,0.47,0.1,0.72,0.14v36.09c0.17,0,0.29,0.01,0.29,0.01v92.91c0.11-0.03,0.24-0.05,0.34-0.08l1.23-228.74
		C1396.57,198.14,1395.95,198.18,1395.14,198.25z"/>
	<rect x="-13.1" y="276.5" class="st4" width="1397.27" height="492"/>
</g>
</svg>
