<?xml version="1.0" encoding="UTF-8"?>
<svg id="Calque_2" data-name="Calque 2" xmlns="http://www.w3.org/2000/svg" viewBox="0 0 576.69 72">
  <g id="Calque_2-2" data-name="Calque 2">
    <g>
      <path d="m30.7,0c2.5,0,3.8,1.2,3.8,3.2v8.8c0,1,0,2.5-3.8,2.5-2,0-2.1-.2-3.2-.2-9.5,0-9.5,17.3-9.5,20.9,0,3.4.1,22,9.1,22,1.3,0,1.3-.2,3.6-.2,3.8,0,3.8,3.6,3.8,4.6v6.7c0,2.5-1.3,3.7-3.8,3.7-14.2,0-30.7-6.5-30.7-37C0,6.5,16.5,0,30.7,0Z"/>
      <path d="m54.7,21q0,5.5,5.5,5.5t5.5-5.2v-12.8c0-4,0-8,6-8h5c6,0,6,4,6,8v55c0,4,0,8-6,8h-5c-6,0-6-4-6-8v-15c0-6.6-.4-7-5.5-7h-1.1c-3.2,0-4.4,0-4.4,5.1v16.9c0,4,0,8-6,8h-5c-6,0-6-4-6-8V8.5c0-4,0-8,6-8h5c6,0,6,4,6,8v12.5Z"/>
      <path d="m103.3,53.2c.2,2.2,2.2,3.3,4.2,3.3,5.7,0,7.6-.2,9.7-.2,4.2,0,5.5,1.2,5.5,4.2v7c0,3-1,4-4,4h-26.4c-6,0-6-6-6-8V8.5c0-4,0-8,6-8h25.8c2.5,0,4.7,1,4.7,3v8.5c0,2.4-2,2.5-4.5,2.5-3.9,0-7-.2-9.5-.2-5.5,0-5.5,2-5.5,5.2,0,6.5,0,8.2,5,8.2,6.2,0,7.2-.2,9.5-.2,3.5,0,3.7,3.5,3.7,4.6v6.4c0,3-2.1,3.2-4.6,3.2-5.1,0-8.3-.2-10.4-.2-3.2,0-3.2,1.4-3.2,4.7v7Z"/>
      <path d="m156.1,0c2.5,0,3.8,1.2,3.8,3.2v8.8c0,1,0,2.5-3.8,2.5-2,0-2.1-.2-3.2-.2-9.5,0-9.5,17.3-9.5,20.9,0,3.4.1,22,9.1,22,1.3,0,1.3-.2,3.6-.2,3.8,0,3.8,3.6,3.8,4.6v6.7c0,2.5-1.3,3.7-3.8,3.7-14.2,0-30.7-6.5-30.7-37C125.4,6.5,141.9,0,156.1,0Z"/>
      <path d="m209.2,68.5c0,1.8-1.6,3-5.2,3h-5.2c-6.4,0-6.8-1.4-9-7.9-4.5-13.1-6.2-22.1-9.1-22.1-.6,0-.8.9-.8,2.2s.2,3.1.2,4.8v15c0,4,0,8-6,8h-5c-6,0-6-4-6-8V8.5c0-4,0-8,6-8h5c6,0,6,4,6,8q0,17.7.5,17.7c3,0,5.8-11.8,6.8-14.2,3.3-7.9,3.6-11.5,8.7-11.5h5.8c3.4,0,6.2,0,6.2,2.8,0,1.2-.5,2.9-1.7,5.3-3.2,6.6-12,22.4-12,23,0,.4.4,1,1.1,2.5,1,2.2,13.4,29.3,13.7,34.4Z"/>
      <path d="m271.1,6.1c2.2-5.2,4.5-5.6,8.1-5.6h5.4c6,0,6,4,6,8v55c0,4,0,8-6,8h-5c-6,0-6-4-6-8v-27.5c0-.6-.2-1-.5-1s-.6.4-.9,1c-7.1,14.1-7.3,17.5-10.6,17.5s-3.6-3.4-10.6-17.5c-.3-.6-.7-1-.9-1-.3,0-.5.4-.5,1v27.5c0,4,0,8-6,8h-5c-6,0-6-4-6-8V8.5c0-4,0-8,6-8h5.3c3.7,0,6,.5,8.2,5.6l7.5,17.7c.8,1.8,1.3,2.8,2,2.8s1.2-1,2-2.8l7.5-17.7Z"/>
      <path d="m314.4,71.5c-6,0-6-4-6-8v-15.1c0-5.4-5.2-17.9-7-22.1l-.3-.7c-2-4.5-7.9-19.7-7.9-22.5,0-2.6,2.2-2.6,2.9-2.6h11.4c3.2,0,4.2,4.3,5,8,.7,3.2,4,14.4,4.2,15.3.1.7.6,1.1,1,1.1.5,0,.9-.3,1-1,.1-.9,3.1-12.2,3.9-15.4.9-3.7,2.1-8,5.7-8h8.9c3,0,4.1,0,4.1,2.6,0,2.8-5.8,18.1-7.8,22.5-.9,2-2.6,6.6-4.7,11.8-3.1,7.8-3.4,8.8-3.4,17.6v8.9c0,3.9,0,7.6-6,7.6h-5Z"/>
      <path d="m394.1,64.5c-1.9,6.9-4.2,7-7.8,7h-5.5c-5.7,0-6.5-2.9-7.6-8-2.1-10.1-10.1-57.5-10.1-60.4,0-2,.3-2.6,2.5-2.6h10.8c2.6,0,3.1,1.5,3.5,4.3l6.5,43.3c0,.3.1.5.4.5s.4-.2.5-.5c.1-.5,3.2-23.3,3.2-24.9-.8-5.3-2.7-16.4-2.9-18.7-.1-.5-.1-1-.1-1.4,0-1.8.6-2.6,2.4-2.6,1.7,0,4.6.2,6.6.2.9,0,7.7-.2,8.6-.2,1.6,0,2.3.7,2.3,2.6,0,.4-.1.9-.1,1.4-.2,2.3-1.7,13.5-1.7,18.8,0,1.8,4.5,24.8,4.5,24.8,0,.3.1.5.4.5s.4-.2.5-.5l4.3-43.6c.1-2.5,1-4,3.3-4h11.7c1.6,0,1.9.7,1.9,2.4,0,3.1-6.7,50.5-8.7,60.6-.9,4.8-1.4,8-6.5,8h-7.2c-3.8,0-5.5,0-7.1-7-1.4-5.9-3.2-13.3-4.4-13.3-.7,0-2.9,8.5-4.2,13.3Z"/>
      <path d="m434.59,27.9c0-16.1,1.5-27.9,22.6-27.9s21.5,11.6,21.5,27.5c0,6,.3,11.9.3,17.2,0,15.8-2.5,27.3-21.8,27.3-21.1,0-22.6-11.8-22.6-27.8,0-2.7.1-5.4.1-8.2s-.1-5.5-.1-8.1Zm17.1-8.4v31.5c0,3,0,7,5,7s5-4,5-7v-31.5c0-2.5,0-5.5-5-5.5s-5,3-5,5.5Z"/>
      <path d="m507.59.5c14.9,0,19.1,10.7,19.1,22.5,0,7.2-.1,11.8-5.8,16.6-2.8,2.4-4.6,1-4.6,4.8,0,4.1,1.3,9.1,4.6,9.1,1.8,0,2.9-.5,3.2-.5,3.2,0,3.7,2.7,3.7,7.3,0,2.2-.1,4.9-.1,7.9,0,2-.8,3.8-6,3.8-9.2,0-13.9-6.8-15.8-14.2-2.4-9.3-5.4-10.9-6-10.9-.8,0-.8,1.6-.8,2.4v14.2c0,4,0,8-6,8h-7c-4,0-4-4-4-8V8.5c0-4,0-8,6-8h19.5Zm-8.6,17.8c0,1.3.1,3.6.1,5.7s-.1,3.8-.1,5c0,3.3.6,3.9,4.6,3.9,4.5,0,5.5-4.4,5.5-8.9s-1-10-5.5-10c-4,0-4.6.7-4.6,4.3Z"/>
      <path d="m576.69,68.5c0,1.8-1.6,3-5.2,3h-5.2c-6.4,0-6.8-1.4-9-7.9-4.5-13.1-6.2-22.1-9.1-22.1-.6,0-.8.9-.8,2.2s.2,3.1.2,4.8v15c0,4,0,8-6,8h-5c-6,0-6-4-6-8V8.5c0-4,0-8,6-8h5c6,0,6,4,6,8q0,17.7.5,17.7c3,0,5.8-11.8,6.8-14.2,3.3-7.9,3.6-11.5,8.7-11.5h5.8c3.4,0,6.2,0,6.2,2.8,0,1.2-.5,2.9-1.7,5.3-3.2,6.6-12,22.4-12,23,0,.4.4,1,1.1,2.5,1,2.2,13.4,29.3,13.7,34.4Z"/>
    </g>
  </g>
</svg>