<?xml version="1.0" encoding="UTF-8"?>
<svg id="Calque_2" data-name="Calque 2" xmlns="http://www.w3.org/2000/svg" viewBox="0 0 2194.25 72">
  <defs>
    <style>
      .cls-1 {
        fill: #212121;
      }
    </style>
  </defs>
  <g id="Calque_2-2" data-name="Calque 2">
    <g>
      <path class="cls-1" d="m30.7,0c2.5,0,3.8,1.2,3.8,3.2v8.8c0,1,0,2.5-3.8,2.5-2,0-2.1-.2-3.2-.2-9.5,0-9.5,17.3-9.5,20.9,0,3.4.1,22,9.1,22,1.3,0,1.3-.2,3.6-.2,3.8,0,3.8,3.6,3.8,4.6v6.7c0,2.5-1.3,3.7-3.8,3.7-14.2,0-30.7-6.5-30.7-37C0,6.5,16.5,0,30.7,0Z"/>
      <path class="cls-1" d="m37.3,27.9c0-16.1,1.5-27.9,22.6-27.9s21.5,11.6,21.5,27.5c0,6,.3,11.9.3,17.2,0,15.8-2.5,27.3-21.8,27.3-21.1,0-22.6-11.8-22.6-27.8,0-2.7.1-5.4.1-8.2s-.1-5.5-.1-8.1Zm17.1-8.4v31.5c0,3,0,7,5,7s5-4,5-7v-31.5c0-2.5,0-5.5-5-5.5s-5,3-5,5.5Z"/>
      <path class="cls-1" d="m101.8,48.8v14.7c0,4,0,8-6,8h-5c-6,0-6-4-6-8V8.5c0-4,0-8,6-8h21.7c10.8,0,16.9,8.8,16.9,22.8,0,5.6-1.6,13.1-3.1,16.2-3.2,6.8-12.7,7.8-18.3,7.8-2.5,0-3.7-.2-3.7-.2-2.4,0-2.5.8-2.5,1.7Zm-.1-29.9c0,1.3.1,3,.1,5.1s-.1,3.8-.1,5c0,3.3.6,3.9,4.6,3.9,5.3,0,5.5-4.4,5.5-8.9s-1-10-5.5-10c-4,0-4.6,1.3-4.6,4.9Z"/>
      <path class="cls-1" d="m152,71.5c-6,0-6-4-6-8v-15.1c0-5.4-5.2-17.9-7-22.1l-.3-.7c-2-4.5-7.9-19.7-7.9-22.5,0-2.6,2.2-2.6,2.9-2.6h11.4c3.2,0,4.2,4.3,5,8,.7,3.2,4,14.4,4.2,15.3.1.7.6,1.1,1,1.1.5,0,.9-.3,1-1,.1-.9,3.1-12.2,3.9-15.4.9-3.7,2.1-8,5.7-8h8.9c3,0,4.1,0,4.1,2.6,0,2.8-5.8,18.1-7.8,22.5-.9,2-2.6,6.6-4.7,11.8-3.1,7.8-3.4,8.8-3.4,17.6v8.9c0,3.9,0,7.6-6,7.6h-5Z"/>
      <path class="cls-1" d="m207,.5c14.9,0,19.1,10.7,19.1,22.5,0,7.2-.1,11.8-5.8,16.6-2.8,2.4-4.6,1-4.6,4.8,0,4.1,1.3,9.1,4.6,9.1,1.8,0,2.9-.5,3.2-.5,3.2,0,3.7,2.7,3.7,7.3,0,2.2-.1,4.9-.1,7.9,0,2-.8,3.8-6,3.8-9.2,0-13.9-6.8-15.8-14.2-2.4-9.3-5.4-10.9-6-10.9-.8,0-.8,1.6-.8,2.4v14.2c0,4,0,8-6,8h-7c-4,0-4-4-4-8V8.5c0-4,0-8,6-8h19.5Zm-8.6,17.8c0,1.3.1,3.6.1,5.7s-.1,3.8-.1,5c0,3.3.6,3.9,4.6,3.9,4.5,0,5.5-4.4,5.5-8.9s-1-10-5.5-10c-4,0-4.6.7-4.6,4.3Z"/>
      <path class="cls-1" d="m247,63.5c0,4,0,8-6,8h-5c-6,0-6-4-6-8V8.5c0-4,0-8,6-8h5c6,0,6,4,6,8v55Z"/>
      <path class="cls-1" d="m282.4,44.1c0-3.1-1.8-3.2-3.7-3.2-3.3,0-3.7-1.6-3.7-4.3v-1c0-8.1.1-8.6,4.8-8.6h14.3c4.3,0,4.3,2.1,4.3,4v31.2c0,9.8-9.7,9.8-15.4,9.8-15.9,0-33.2-7.2-33.2-36.7S268.2,0,280.5,0c10.4,0,14.6,1.1,14.6,4.2v7.9c0,1.8-1.3,2.4-2.9,2.4-3.1,0-6.2-1.3-10.7-1.3-12.7,0-14.2,17.7-14.2,21.8,0,8.2,1.5,22.5,11.7,22.5,2,0,3.4-1,3.4-4.5v-8.9Z"/>
      <path class="cls-1" d="m318.69,21q0,5.5,5.5,5.5t5.5-5.2v-12.8c0-4,0-8,6-8h5c6,0,6,4,6,8v55c0,4,0,8-6,8h-5c-6,0-6-4-6-8v-15c0-6.6-.4-7-5.5-7h-1.1c-3.2,0-4.4,0-4.4,5.1v16.9c0,4,0,8-6,8h-5c-6,0-6-4-6-8V8.5c0-4,0-8,6-8h5c6,0,6,4,6,8v12.5Z"/>
      <path class="cls-1" d="m376.49,64.2c-.2,3.8-.4,7.3-6,7.3h-5c-6,0-6-4-6-8V17.8c0-2.5-.5-3.1-2.6-3.1-.7,0-1.7.1-2.9.1-2.5,0-4.5-.4-4.5-2.8V3.5c0-2,2.2-3,4.7-3h27.6c2.5,0,4.7,1,4.7,3v8.5c0,2.4-2,2.8-4.5,2.8-.7,0-1.6-.1-2.8-.1-2.5,0-2.7.6-2.7,3.1v46.4Z"/>
      <path class="cls-1" d="m471.49,37.5c0,17.2-13.2,31-30.1,31s-30.4-13.8-30.4-31,13.4-30.8,30.4-30.8,30.1,13.8,30.1,30.8Zm-55.5.3c0,14.9,11,26.6,25.4,26.6s25.1-11.7,25.1-26.9-11-26.7-25.1-26.7-25.4,11.8-25.4,27Zm37.6-11.7c-1.3-.7-5-2.3-9.7-2.3-9.4,0-14,6-14,14s4.9,14.1,14.1,14.1c4,0,7.8-1.1,10.1-2.6l1.2,3.8c-3.5,2.3-8.1,3.1-12.3,3.1-11.6,0-18.3-8-18.3-18.1,0-11.4,9-18.6,19.1-18.6,5.2,0,9.7,1.5,11,2.7l-1.2,3.9Z"/>
      <path class="cls-1" d="m526.79,57c4.2,0,4.7,2.2,4.7,5.2v1.3c0,4,0,8-6,8h-22.6c-6,0-6-4-6-8V8.5c0-4,0-8,6-8h5c6,0,6,4,6,8v43.1c0,2.4,0,5.5,3.1,5.6,5.3,0,7.7-.2,9.8-.2Z"/>
      <path class="cls-1" d="m582.99,66.5c0,4.6-3.1,5-8.8,5h-5.3c-6.2,0-3.1-15-7.1-15h-8c-4,0-1.7,15-7.7,15h-4.7c-5.2,0-8.3-.4-8.3-5,0-6,2.4-11.3,10.2-58,.8-5,2.8-8,6.8-8h15.4c4,0,6,3,7,8,6.8,41,10.5,52,10.5,58Zm-29.1-26.6c0,1.6.7,1.6,3.9,1.6s3.9,0,3.9-1.5c0-.4,0-.9-.1-1.6-1.2-9.8-1.6-21.9-3.8-21.9s-2.8,12-3.8,21.9c-.1.6-.1,1.1-.1,1.5Z"/>
      <path class="cls-1" d="m629.79,51.2c0,12.4-1.4,20.8-21.5,20.8-21.1,0-22.6-8.5-22.6-21.5,0-31.6.1-42,.1-42,0-4,0-8,6-8h5c6,0,6,4,6,8v44c0,3,0,5.5,5.5,5.5,4.5,0,4.5-2.5,4.5-5.5V8.4c0-3.9,0-7.9,6-7.9h5c6,0,6,4,6,7.9v42.8Z"/>
      <path class="cls-1" d="m658.69.5c14.9,0,19.1,10.7,19.1,22.5,0,7.2-.1,11.8-5.8,16.6-2.8,2.4-4.6,1-4.6,4.8,0,4.1,1.3,9.1,4.6,9.1,1.8,0,2.9-.5,3.2-.5,3.2,0,3.7,2.7,3.7,7.3,0,2.2-.1,4.9-.1,7.9,0,2-.8,3.8-6,3.8-9.2,0-13.9-6.8-15.8-14.2-2.4-9.3-5.4-10.9-6-10.9-.8,0-.8,1.6-.8,2.4v14.2c0,4,0,8-6,8h-7c-4,0-4-4-4-8V8.5c0-4,0-8,6-8h19.5Zm-8.6,17.8c0,1.3.1,3.6.1,5.7s-.1,3.8-.1,5c0,3.3.6,3.9,4.6,3.9,4.5,0,5.5-4.4,5.5-8.9s-1-10-5.5-10c-4,0-4.6.7-4.6,4.3Z"/>
      <path class="cls-1" d="m698.69,53.2c.2,2.2,2.2,3.3,4.2,3.3,5.7,0,7.6-.2,9.7-.2,4.2,0,5.5,1.2,5.5,4.2v7c0,3-1,4-4,4h-26.4c-6,0-6-6-6-8V8.5c0-4,0-8,6-8h25.8c2.5,0,4.7,1,4.7,3v8.5c0,2.4-2,2.5-4.5,2.5-3.9,0-7-.2-9.5-.2-5.5,0-5.5,2-5.5,5.2,0,6.5,0,8.2,5,8.2,6.2,0,7.2-.2,9.5-.2,3.5,0,3.7,3.5,3.7,4.6v6.4c0,3-2.1,3.2-4.6,3.2-5.1,0-8.3-.2-10.4-.2-3.2,0-3.2,1.4-3.2,4.7v7Z"/>
      <path class="cls-1" d="m752.59,32.5c.3,0,.5-.3.5-1V8.5c0-4,0-8,6-8h5c6,0,6,4,6,8v55c0,4,0,8-6,8-9,0-9.7-1.6-11.1-4.6l-13.3-28.9c-.3-.6-.6-1-.8-1-.3,0-.4.4-.4,1l.1,25.5c0,4,0,8-6,8h-5c-6,0-6-4-6-8V8.5c0-4,0-8,6-8h5.3c3.3,0,4.4.4,5.9,3.5l12.9,27.5c.3.7.6,1,.9,1Z"/>
      <path class="cls-1" d="m803.59,0c2.5,0,3.8,1.2,3.8,3.2v8.8c0,1,0,2.5-3.8,2.5-2,0-2.1-.2-3.2-.2-9.5,0-9.5,17.3-9.5,20.9,0,3.4.1,22,9.1,22,1.3,0,1.3-.2,3.6-.2,3.8,0,3.8,3.6,3.8,4.6v6.7c0,2.5-1.3,3.7-3.8,3.7-14.2,0-30.7-6.5-30.7-37,0-28.5,16.5-35,30.7-35Z"/>
      <path class="cls-1" d="m827.58,53.2c.2,2.2,2.2,3.3,4.2,3.3,5.7,0,7.6-.2,9.7-.2,4.2,0,5.5,1.2,5.5,4.2v7c0,3-1,4-4,4h-26.4c-6,0-6-6-6-8V8.5c0-4,0-8,6-8h25.8c2.5,0,4.7,1,4.7,3v8.5c0,2.4-2,2.5-4.5,2.5-3.9,0-7-.2-9.5-.2-5.5,0-5.5,2-5.5,5.2,0,6.5,0,8.2,5,8.2,6.2,0,7.2-.2,9.5-.2,3.5,0,3.7,3.5,3.7,4.6v6.4c0,3-2.1,3.2-4.6,3.2-5.1,0-8.3-.2-10.4-.2-3.2,0-3.2,1.4-3.2,4.7v7Z"/>
      <path class="cls-1" d="m900.38,0c2.5,0,3.8,1.2,3.8,3.2v8.8c0,1,0,2.5-3.8,2.5-2,0-2.1-.2-3.2-.2-9.5,0-9.5,17.3-9.5,20.9,0,3.4.1,22,9.1,22,1.3,0,1.3-.2,3.6-.2,3.8,0,3.8,3.6,3.8,4.6v6.7c0,2.5-1.3,3.7-3.8,3.7-14.2,0-30.7-6.5-30.7-37,0-28.5,16.5-35,30.7-35Z"/>
      <path class="cls-1" d="m956.58,66.5c0,4.6-3.1,5-8.8,5h-5.3c-6.2,0-3.1-15-7.1-15h-8c-4,0-1.7,15-7.7,15h-4.7c-5.2,0-8.3-.4-8.3-5,0-6,2.4-11.3,10.2-58,.8-5,2.8-8,6.8-8h15.4c4,0,6,3,7,8,6.8,41,10.5,52,10.5,58Zm-29.1-26.6c0,1.6.7,1.6,3.9,1.6s3.9,0,3.9-1.5c0-.4,0-.9-.1-1.6-1.2-9.8-1.6-21.9-3.8-21.9s-2.8,12-3.8,21.9c-.1.6-.1,1.1-.1,1.5Z"/>
      <path class="cls-1" d="m984.98.5c14.9,0,19.1,10.7,19.1,22.5,0,7.2-.1,11.8-5.8,16.6-2.8,2.4-4.6,1-4.6,4.8,0,4.1,1.3,9.1,4.6,9.1,1.8,0,2.9-.5,3.2-.5,3.2,0,3.7,2.7,3.7,7.3,0,2.2-.1,4.9-.1,7.9,0,2-.8,3.8-6,3.8-9.2,0-13.9-6.8-15.8-14.2-2.4-9.3-5.4-10.9-6-10.9-.8,0-.8,1.6-.8,2.4v14.2c0,4,0,8-6,8h-7c-4,0-4-4-4-8V8.5c0-4,0-8,6-8h19.5Zm-8.6,17.8c0,1.3.1,3.6.1,5.7s-.1,3.8-.1,5c0,3.3.6,3.9,4.6,3.9,4.5,0,5.5-4.4,5.5-8.9s-1-10-5.5-10c-4,0-4.6.7-4.6,4.3Z"/>
      <path class="cls-1" d="m1033.48.5c14.9,0,19.1,10.7,19.1,22.5,0,7.2-.1,11.8-5.8,16.6-2.8,2.4-4.6,1-4.6,4.8,0,4.1,1.3,9.1,4.6,9.1,1.8,0,2.9-.5,3.2-.5,3.2,0,3.7,2.7,3.7,7.3,0,2.2-.1,4.9-.1,7.9,0,2-.8,3.8-6,3.8-9.2,0-13.9-6.8-15.8-14.2-2.4-9.3-5.4-10.9-6-10.9-.8,0-.8,1.6-.8,2.4v14.2c0,4,0,8-6,8h-7c-4,0-4-4-4-8V8.5c0-4,0-8,6-8h19.5Zm-8.6,17.8c0,1.3.1,3.6.1,5.7s-.1,3.8-.1,5c0,3.3.6,3.9,4.6,3.9,4.5,0,5.5-4.4,5.5-8.9s-1-10-5.5-10c-4,0-4.6.7-4.6,4.3Z"/>
      <path class="cls-1" d="m1073.48,63.5c0,4,0,8-6,8h-5c-6,0-6-4-6-8V8.5c0-4,0-8,6-8h5c6,0,6,4,6,8v55Z"/>
      <path class="cls-1" d="m1094.08,53.2c.2,2.2,2.2,3.3,4.2,3.3,5.7,0,7.6-.2,9.7-.2,4.2,0,5.5,1.2,5.5,4.2v7c0,3-1,4-4,4h-26.4c-6,0-6-6-6-8V8.5c0-4,0-8,6-8h25.8c2.5,0,4.7,1,4.7,3v8.5c0,2.4-2,2.5-4.5,2.5-3.9,0-7-.2-9.5-.2-5.5,0-5.5,2-5.5,5.2,0,6.5,0,8.2,5,8.2,6.2,0,7.2-.2,9.5-.2,3.5,0,3.7,3.5,3.7,4.6v6.4c0,3-2.1,3.2-4.6,3.2-5.1,0-8.3-.2-10.4-.2-3.2,0-3.2,1.4-3.2,4.7v7Z"/>
      <path class="cls-1" d="m1142.48.5c14.9,0,19.1,10.7,19.1,22.5,0,7.2-.1,11.8-5.8,16.6-2.8,2.4-4.6,1-4.6,4.8,0,4.1,1.3,9.1,4.6,9.1,1.8,0,2.9-.5,3.2-.5,3.2,0,3.7,2.7,3.7,7.3,0,2.2-.1,4.9-.1,7.9,0,2-.8,3.8-6,3.8-9.2,0-13.9-6.8-15.8-14.2-2.4-9.3-5.4-10.9-6-10.9-.8,0-.8,1.6-.8,2.4v14.2c0,4,0,8-6,8h-7c-4,0-4-4-4-8V8.5c0-4,0-8,6-8h19.5Zm-8.6,17.8c0,1.3.1,3.6.1,5.7s-.1,3.8-.1,5c0,3.3.6,3.9,4.6,3.9,4.5,0,5.5-4.4,5.5-8.9s-1-10-5.5-10c-4,0-4.6.7-4.6,4.3Z"/>
      <path class="cls-1" d="m1222.88,57c5.1,0,5.1,4.5,5.1,6.2v3c0,3,0,5.3-5.6,5.3h-31.9c-5.3,0-5.3-3-5.3-6v-6c0-2.9,4.1-5.7,10.4-12,2.7-2.7,6.5-6.8,9.6-11.6,3.1-4.9,3.9-8.2,3.9-15.6,0-4.2-2-6.8-4.4-6.8-3.3,0-4.5,4.8-4.5,7.8,0,.5.3,3.9.3,4.5,0,1.2-.2,3.1-3,3.1h-8.8c-3,0-3-2.2-3-4.4v-3.8c0-3.8.6-10.3,3.4-14.3,4.4-6.2,11.4-6.4,17.1-6.4,4.6,0,10,.2,14.2,3.3,5.1,3.8,7.3,11.6,7.3,17.9s-.4,13.8-5.9,20.3c-7.4,8.8-15.4,14.8-15.4,15.5,0,.2.1.3.3.3,1.6,0,6.4-.1,8.1-.1.5,0,6.3-.2,8.1-.2Z"/>
      <path class="cls-1" d="m1252.37,0c21.5,0,21.5,15.9,21.5,36s0,36-21.5,36-21.5-15.9-21.5-36,0-36,21.5-36Zm-4.5,23.8v25.1c0,4.7.3,9.1,4.5,9.1s4.9-5.1,4.9-12.4c0-2.9-.1-6.2-.1-9.6s.1-6.4.1-9.1c0-7.2-.6-11.9-4.9-11.9s-4.5,3.9-4.5,8.8Z"/>
      <path class="cls-1" d="m1314.47,57c5.1,0,5.1,4.5,5.1,6.2v3c0,3,0,5.3-5.6,5.3h-31.9c-5.3,0-5.3-3-5.3-6v-6c0-2.9,4.1-5.7,10.4-12,2.7-2.7,6.5-6.8,9.6-11.6,3.1-4.9,3.9-8.2,3.9-15.6,0-4.2-2-6.8-4.4-6.8-3.3,0-4.5,4.8-4.5,7.8,0,.5.3,3.9.3,4.5,0,1.2-.2,3.1-3,3.1h-8.8c-3,0-3-2.2-3-4.4v-3.8c0-3.8.6-10.3,3.4-14.3,4.4-6.2,11.4-6.4,17.1-6.4,4.6,0,10,.2,14.2,3.3,5.1,3.8,7.3,11.6,7.3,17.9s-.4,13.8-5.9,20.3c-7.4,8.8-15.4,14.8-15.4,15.5,0,.2.1.3.3.3,1.6,0,6.4-.1,8.1-.1.5,0,6.3-.2,8.1-.2Z"/>
      <path class="cls-1" d="m1340.17,28c7.2,0,8.1-4.2,8.1-6.8,0-2.1-.1-7.6-7-7.6-2.1,0-3.7.6-5.8,3.1-1.6,1.8-2.3,2.8-3.4,2.8-.7,0-1.5-.5-2.6-1.4l-3.6-2.9c-1.1-.9-2.1-1.7-2.1-2.9,0-.7.3-1.4.9-2.3,6.3-8.5,11.8-10,21.2-10,5.3,0,12.8,1.9,16,6.8,2.7,4.2,3,7.4,3,9.3,0,12.7-6,15.1-6,16.4,0,1,1.8,2.1,2.8,2.8,5.9,4.6,5.9,10.8,5.9,15.1,0,14-7.6,21.6-25,21.6-7.1,0-10.4-1-14-3.1-1.5-.8-6.3-5-6.3-7.5,0-1.2.7-2.1,2.2-3.6l4.5-4.4c.7-.8,1.4-1.1,2.1-1.1.8,0,1.5.4,1.9.8,2.5,2.8,5.5,4.6,9.7,4.6,5.9,0,7.8-3.4,7.8-7.7,0-6.3-2.7-8.6-9.1-8.6-.3,0-1.6.2-2.9.2-2.5,0-2.8-3.5-2.8-6.2v-1.1c0-2.8.1-6.3,3.2-6.3h1.3Z"/>
      <path class="cls-1" d="m1374.97,71.5c-1.8,0-4.6,0-4.6-4v-10c0-4,2.8-4,4.6-4h8.1c2.3,0,4.3,0,4.3,4v10c0,4-2,4-4.3,4h-8.1Z"/>
      <path class="cls-1" d="m1459.97,66.5c0,4.6-3.1,5-8.8,5h-5.3c-6.2,0-3.1-15-7.1-15h-8c-4,0-1.7,15-7.7,15h-4.7c-5.2,0-8.3-.4-8.3-5,0-6,2.4-11.3,10.2-58,.8-5,2.8-8,6.8-8h15.4c4,0,6,3,7,8,6.8,41,10.5,52,10.5,58Zm-29.1-26.6c0,1.6.7,1.6,3.9,1.6s3.9,0,3.9-1.5c0-.4,0-.9-.1-1.6-1.2-9.8-1.6-21.9-3.8-21.9s-2.8,12-3.8,21.9c-.1.6-.1,1.1-.1,1.5Z"/>
      <path class="cls-1" d="m1492.77,57c4.2,0,4.7,2.2,4.7,5.2v1.3c0,4,0,8-6,8h-22.6c-6,0-6-4-6-8V8.5c0-4,0-8,6-8h5c6,0,6,4,6,8v43.1c0,2.4,0,5.5,3.1,5.6,5.3,0,7.7-.2,9.8-.2Z"/>
      <path class="cls-1" d="m1529.67,57c4.2,0,4.7,2.2,4.7,5.2v1.3c0,4,0,8-6,8h-22.6c-6,0-6-4-6-8V8.5c0-4,0-8,6-8h5c6,0,6,4,6,8v43.1c0,2.4,0,5.5,3.1,5.6,5.3,0,7.7-.2,9.8-.2Z"/>
      <path class="cls-1" d="m1582.17.5c14.9,0,19.1,10.7,19.1,22.5,0,7.2-.1,11.8-5.8,16.6-2.8,2.4-4.6,1-4.6,4.8,0,4.1,1.3,9.1,4.6,9.1,1.8,0,2.9-.5,3.2-.5,3.2,0,3.7,2.7,3.7,7.3,0,2.2-.1,4.9-.1,7.9,0,2-.8,3.8-6,3.8-9.2,0-13.9-6.8-15.8-14.2-2.4-9.3-5.4-10.9-6-10.9-.8,0-.8,1.6-.8,2.4v14.2c0,4,0,8-6,8h-7c-4,0-4-4-4-8V8.5c0-4,0-8,6-8h19.5Zm-8.6,17.8c0,1.3.1,3.6.1,5.7s-.1,3.8-.1,5c0,3.3.6,3.9,4.6,3.9,4.5,0,5.5-4.4,5.5-8.9s-1-10-5.5-10c-4,0-4.6.7-4.6,4.3Z"/>
      <path class="cls-1" d="m1622.17,63.5c0,4,0,8-6,8h-5c-6,0-6-4-6-8V8.5c0-4,0-8,6-8h5c6,0,6,4,6,8v55Z"/>
      <path class="cls-1" d="m1657.57,44.1c0-3.1-1.8-3.2-3.7-3.2-3.3,0-3.7-1.6-3.7-4.3v-1c0-8.1.1-8.6,4.8-8.6h14.3c4.3,0,4.3,2.1,4.3,4v31.2c0,9.8-9.7,9.8-15.4,9.8-15.9,0-33.2-7.2-33.2-36.7s18.4-35.3,30.7-35.3c10.4,0,14.6,1.1,14.6,4.2v7.9c0,1.8-1.3,2.4-2.9,2.4-3.1,0-6.2-1.3-10.7-1.3-12.7,0-14.2,17.7-14.2,21.8,0,8.2,1.5,22.5,11.7,22.5,2,0,3.4-1,3.4-4.5v-8.9Z"/>
      <path class="cls-1" d="m1693.86,21q0,5.5,5.5,5.5t5.5-5.2v-12.8c0-4,0-8,6-8h5c6,0,6,4,6,8v55c0,4,0,8-6,8h-5c-6,0-6-4-6-8v-15c0-6.6-.4-7-5.5-7h-1.1c-3.2,0-4.4,0-4.4,5.1v16.9c0,4,0,8-6,8h-5c-6,0-6-4-6-8V8.5c0-4,0-8,6-8h5c6,0,6,4,6,8v12.5Z"/>
      <path class="cls-1" d="m1751.66,64.2c-.2,3.8-.4,7.3-6,7.3h-5c-6,0-6-4-6-8V17.8c0-2.5-.5-3.1-2.6-3.1-.7,0-1.7.1-2.9.1-2.5,0-4.5-.4-4.5-2.8V3.5c0-2,2.2-3,4.7-3h27.6c2.5,0,4.7,1,4.7,3v8.5c0,2.4-2,2.8-4.5,2.8-.7,0-1.6-.1-2.8-.1-2.5,0-2.7.6-2.7,3.1v46.4Z"/>
      <path class="cls-1" d="m1785.16,0c8.3,0,13.9,1.5,13.9,4.3v7.7c0,1.1-.4,3-3.8,3h-.8c-1.6,0-5.2-1.1-8.1-1.1-2.4,0-4.3.8-4.3,4s.9,4.7,4.8,7.9c11.9,9.8,14.3,16.8,14.3,24.9,0,4.6-.1,8.8-2.7,12.7-3.3,5-8.5,6.9-10.7,7.5-2.7.7-6.5,1.1-9.6,1.1-7.4,0-14.6-1.4-14.6-5.4v-7.7c0-1.2,1-2.4,3.7-2.4s4.8,1.5,10.5,1.5c2.8,0,6.6-2.2,6.6-5.3,0-2.3-.1-4-6.2-10-9.3-9.1-13.7-13.3-13.7-21.5,0-19.7,12.7-21.2,20.7-21.2Z"/>
      <path class="cls-1" d="m1849.46.5c14.9,0,19.1,10.7,19.1,22.5,0,7.2-.1,11.8-5.8,16.6-2.8,2.4-4.6,1-4.6,4.8,0,4.1,1.3,9.1,4.6,9.1,1.8,0,2.9-.5,3.2-.5,3.2,0,3.7,2.7,3.7,7.3,0,2.2-.1,4.9-.1,7.9,0,2-.8,3.8-6,3.8-9.2,0-13.9-6.8-15.8-14.2-2.4-9.3-5.4-10.9-6-10.9-.8,0-.8,1.6-.8,2.4v14.2c0,4,0,8-6,8h-7c-4,0-4-4-4-8V8.5c0-4,0-8,6-8h19.5Zm-8.6,17.8c0,1.3.1,3.6.1,5.7s-.1,3.8-.1,5c0,3.3.6,3.9,4.6,3.9,4.5,0,5.5-4.4,5.5-8.9s-1-10-5.5-10c-4,0-4.6.7-4.6,4.3Z"/>
      <path class="cls-1" d="m1889.46,53.2c.2,2.2,2.2,3.3,4.2,3.3,5.7,0,7.6-.2,9.7-.2,4.2,0,5.5,1.2,5.5,4.2v7c0,3-1,4-4,4h-26.4c-6,0-6-6-6-8V8.5c0-4,0-8,6-8h25.8c2.5,0,4.7,1,4.7,3v8.5c0,2.4-2,2.5-4.5,2.5-3.9,0-7-.2-9.5-.2-5.5,0-5.5,2-5.5,5.2,0,6.5,0,8.2,5,8.2,6.2,0,7.2-.2,9.5-.2,3.5,0,3.7,3.5,3.7,4.6v6.4c0,3-2.1,3.2-4.6,3.2-5.1,0-8.3-.2-10.4-.2-3.2,0-3.2,1.4-3.2,4.7v7Z"/>
      <path class="cls-1" d="m1933.16,0c8.3,0,13.9,1.5,13.9,4.3v7.7c0,1.1-.4,3-3.8,3h-.8c-1.6,0-5.2-1.1-8.1-1.1-2.4,0-4.3.8-4.3,4s.9,4.7,4.8,7.9c11.9,9.8,14.3,16.8,14.3,24.9,0,4.6-.1,8.8-2.7,12.7-3.3,5-8.5,6.9-10.7,7.5-2.7.7-6.5,1.1-9.6,1.1-7.4,0-14.6-1.4-14.6-5.4v-7.7c0-1.2,1-2.4,3.7-2.4s4.8,1.5,10.5,1.5c2.8,0,6.6-2.2,6.6-5.3,0-2.3-.1-4-6.2-10-9.3-9.1-13.7-13.3-13.7-21.5,0-19.7,12.7-21.2,20.7-21.2Z"/>
      <path class="cls-1" d="m1968.96,53.2c.2,2.2,2.2,3.3,4.2,3.3,5.7,0,7.6-.2,9.7-.2,4.2,0,5.5,1.2,5.5,4.2v7c0,3-1,4-4,4h-26.4c-6,0-6-6-6-8V8.5c0-4,0-8,6-8h25.8c2.5,0,4.7,1,4.7,3v8.5c0,2.4-2,2.5-4.5,2.5-3.9,0-7-.2-9.5-.2-5.5,0-5.5,2-5.5,5.2,0,6.5,0,8.2,5,8.2,6.2,0,7.2-.2,9.5-.2,3.5,0,3.7,3.5,3.7,4.6v6.4c0,3-2.1,3.2-4.6,3.2-5.1,0-8.3-.2-10.4-.2-3.2,0-3.2,1.4-3.2,4.7v7Z"/>
      <path class="cls-1" d="m2017.36.5c14.9,0,19.1,10.7,19.1,22.5,0,7.2-.1,11.8-5.8,16.6-2.8,2.4-4.6,1-4.6,4.8,0,4.1,1.3,9.1,4.6,9.1,1.8,0,2.9-.5,3.2-.5,3.2,0,3.7,2.7,3.7,7.3,0,2.2-.1,4.9-.1,7.9,0,2-.8,3.8-6,3.8-9.2,0-13.9-6.8-15.8-14.2-2.4-9.3-5.4-10.9-6-10.9-.8,0-.8,1.6-.8,2.4v14.2c0,4,0,8-6,8h-7c-4,0-4-4-4-8V8.5c0-4,0-8,6-8h19.5Zm-8.6,17.8c0,1.3.1,3.6.1,5.7s-.1,3.8-.1,5c0,3.3.6,3.9,4.6,3.9,4.5,0,5.5-4.4,5.5-8.9s-1-10-5.5-10c-4,0-4.6.7-4.6,4.3Z"/>
      <path class="cls-1" d="m2074.86.4h3.9c4.3,0,6.8.5,6.8,4.5,0,3.1-2.7,15-11,58.6-1,5-3,8-7,8h-12.5c-4,0-6-3-6.9-8-7.6-43.6-10.4-55.5-10.4-58.6,0-4.2,2.5-4.6,7.3-4.6h4.3c5.3,0,6.4,1.7,8.1,17.6,2.9,26.3,3.1,36.1,4.8,36.1,1.2,0,1.8-9.8,3.3-20.9,3.8-30.4,2.8-32.7,9.3-32.7Z"/>
      <path class="cls-1" d="m2105.35,53.2c.2,2.2,2.2,3.3,4.2,3.3,5.7,0,7.6-.2,9.7-.2,4.2,0,5.5,1.2,5.5,4.2v7c0,3-1,4-4,4h-26.4c-6,0-6-6-6-8V8.5c0-4,0-8,6-8h25.8c2.5,0,4.7,1,4.7,3v8.5c0,2.4-2,2.5-4.5,2.5-3.9,0-7-.2-9.5-.2-5.5,0-5.5,2-5.5,5.2,0,6.5,0,8.2,5,8.2,6.2,0,7.2-.2,9.5-.2,3.5,0,3.7,3.5,3.7,4.6v6.4c0,3-2.1,3.2-4.6,3.2-5.1,0-8.3-.2-10.4-.2-3.2,0-3.2,1.4-3.2,4.7v7Z"/>
      <path class="cls-1" d="m2149.25.5c22,0,25,14,25,35.5s-2,35.5-25,35.5h-15c-6,0-6-4-6-8V8.5c0-4,0-8,6-8h15Zm-4.1,16.6c0,11.3.1,23.6.1,35.4,0,2.6.2,5,2,5,7.5,0,8-6,8-22,0-14-.5-21.5-8-21.5-1.8,0-2.1,1-2.1,3.1Z"/>
      <path class="cls-1" d="m2181.85,71.5c-1.8,0-4.6,0-4.6-4v-10c0-4,2.8-4,4.6-4h8.1c2.3,0,4.3,0,4.3,4v10c0,4-2,4-4.3,4h-8.1Z"/>
    </g>
  </g>
</svg>