<?xml version="1.0" encoding="utf-8"?>
<!-- Generator: Adobe Illustrator 27.5.0, SVG Export Plug-In . SVG Version: 6.00 Build 0)  -->
<svg version="1.1" id="foreground" xmlns="http://www.w3.org/2000/svg" xmlns:xlink="http://www.w3.org/1999/xlink" x="0px" y="0px"
	 viewBox="0 0 1366 768" style="enable-background:new 0 0 1366 768;" xml:space="preserve">
<style type="text/css">
	.st0{fill:#4C9334;}
	.st1{fill:#157D35;}
	.st2{fill:#A9BFC3;}
	.st3{fill:#FCF6DE;}
	.st4{fill:#E9E6DA;}
	.st5{fill:#ECDB86;stroke:#E0C551;stroke-miterlimit:10;}
	.st6{fill:#B5C3C6;stroke:#E9E6DA;stroke-miterlimit:10;}
	.st7{fill:#B9775A;}
	.st8{fill:#202020;}
	.st9{fill:#9E5D45;}
	.st10{fill:#B5C3C6;stroke:#D8D3C9;stroke-miterlimit:10;}
	.st11{fill:#E9E6DA;stroke:#D8D3C9;stroke-miterlimit:10;}
	.st12{fill:#B5C3C6;stroke:#F8F1E4;stroke-miterlimit:10;}
	.st13{fill:#E9E6DA;stroke:#E9E6DA;stroke-miterlimit:10;}
	.st14{fill:none;}
	.st15{fill:#4B9D34;}
	.st16{fill:#14331C;}
</style>
<path class="st0" d="M0.1,370.51c2.27-0.63,4.35-1.64,6.13-3.11c21.48-17.7,40.9-21.38,78.98,3.78c5.59,3.69,2.81,8.83,11.01,11.35
	c8.8,2.7,13.12,7.56,10.65,12.22c-9.35,17.62,2.45-9.12,43.74,2.8c50,14.43,44.03,22.4,32.82,49.38
	c14.04,2.51,28.58,5.48,43.55,9.01c31.66,7.47,61.69,18.04,91.23,29.74c1.1-0.44,2.2-0.9,3.27-1.38l28.8-9.64
	c11.49-5.13,30.75-4.54,40.49,1.24l41.59,24.66c3.4,2.01,5.23,4.45,5.21,6.95c-0.09,13.2,6.61,32.63,42.37,39.67
	c1.37,0.27,2.65,0.57,3.88,0.9c14.31-5.45,31.01-6.13,63.68-2.06c47.74,5.94,15.55,28.7,35.63,13.16
	c5.31-4.11,15.81-6.01,26.23-4.86c9.72,1.07,15.53-3.48,25.16-4.12c46.43-3.13,64.14,0.62,66.46,10.1c0.97-0.15,1.96-0.3,2.96-0.45
	c6.54-0.98,12.84-1.88,18.43-2.9c88.64-16.31,89.46-15.41,121.43-13.8l93.77,4.88c5.4-2.06,12-4.18,20.03-6.46
	c42.26-12.02,54.69,14.68,44.88-2.91c-2.6-4.65,1.79-9.52,10.79-12.25c8.39-2.54,5.48-7.67,11.17-11.38
	c38.8-25.25,58.79-21.62,81.06-3.98c8.63,6.84,23.43,3.73,35.92-1.85l15.58-5.21c0.65-0.51,1.27-1.01,1.85-1.52
	c4.16-3.65,8.96-7.24,14.27-10.75c-9.8-22.23-11.39-30.05,35.76-43.46c42.26-12.02,54.69,14.68,44.88-2.91
	c-2.6-4.65,1.79-9.52,10.79-12.25c8.39-2.54,5.48-7.67,11.17-11.38c38.8-25.25,58.79-21.62,81.06-3.98c1.81,1.43,3.9,2.42,6.17,3.05
	c1.04-0.25,1.9-0.47,2.62-0.64v-92.91c0,0-0.11,0-0.28-0.01v-36.09c-2.23-0.35-4.26-1.03-5.98-2.11
	c-17.32-10.92-41.8-15.7-65.34,1.86c-3.52,2.62-4.48,5.99-11,7.57c-7,1.69-11.65,4.95-9.63,7.83c7.63,10.89,3.42-6.4-29.43,1.04
	c-29.8,6.75-38.56,12.05-35.21,20.87c-72.53,2.19-146.46,7.51-181.19,20.89c-72.91,28.08-155.77,73.32-354.63,31.2
	c-92.79-19.66-151.66-39.99-202.89-58.47c0.68-0.79,1.39-1.54,2.12-2.24c1.16-1.12,1.38-2.41,0.66-3.68l-8.87-15.63
	c-2.08-3.66-11.15-6.06-19.08-5.04l-18.39,1.11c-8.62,1.11-17.22,0.86-18.27-3.16c-2.71-10.35-10.75-14.19-41.15-7.21
	c-0.82,0.19-1.49,0.44-2.12,0.71c-23.72-6.51-49.54-12.31-79.79-17.16c-21.56-3.46-42.97-5.72-63.81-7.07
	c-10.86-13.02-44.02-11.58-51.12-12.68c-0.46-0.16-0.88-0.31-1.34-0.47c-16.64-36.65-93.26-7.94-106.61-9.8l1.21,0.33
	c-0.97-0.11-1.79-0.33-2.46-0.68c-16.69-8.62-44.42,11.56-61.59,11.48L-1,293.1v37.39c0.37,0.05,0.74,0.09,1.1,0.14V370.51z"/>
<path class="st1" d="M1365.38,416.45c-2.28-0.63-4.36-1.63-6.17-3.07c-22.28-17.77-42.28-21.42-81.09,4.01
	c-5.7,3.73-2.78,8.9-11.18,11.46c-9,2.75-10.77,7.23-13.64,11.88c-7.8,12.64,0.23-8.72-42.05,3.38
	c-47.17,13.51-69.93,39.27-42.67,45.58c-5.31,3.54-3.21,5.33-7.37,9.01c-0.58,0.51-1.2,1.02-1.85,1.53l-15.58,5.25
	c-12.5,5.62-27.3,8.75-35.93,1.86c-22.28-17.77-42.28-21.42-81.09,4.01c-5.7,3.73-2.78,8.9-11.18,11.46
	c-9,2.75-10.6,6.69-13.14,11.39c-8.4,15.55-0.28-8.23-42.56,3.88c-8.03,2.3-14.63,4.44-20.04,6.51l-44.27,0.22
	c-59.83-5.89-78.4-2.75-171.01,8.77c-5.81,0.72-11.89,1.94-18.44,2.92c-1.01,0.15-2,0.3-2.97,0.46
	c-2.32-9.54-20.04-13.32-66.49-10.17c-9.63,0.65-15.44,5.23-25.17,4.15c-10.43-1.16-20.92,0.76-26.24,4.9
	c-20.09,15.65,12.11-7.27-35.65-13.25c-32.68-4.1-49.39-3.41-63.7,2.08c-1.22-0.33-2.51-0.64-3.88-0.91
	c-35.78-7.09-42.48-26.66-42.39-39.95c0.02-2.52-1.81-4.97-5.21-7l-41.61-24.84c-9.75-5.82-29.01-6.41-40.51-1.25l-28.81,9.71
	c-1.08,0.48-2.17,0.95-3.28,1.39c-29.56-11.79-59.59-22.43-91.27-29.95c-14.97-3.56-25.23-6.26-39.27-8.78
	c11.22-27.16,12.89-35.48-37.12-50.01c-41.31-12-38.95,15.45-43.76-2.82c-1.26-4.8-1.85-9.59-10.65-12.31
	c-8.21-2.54-5.43-7.71-11.02-11.43c-38.1-25.33-57.52-21.63-79.02-3.8c-1.79,1.48-3.86,2.5-6.14,3.13L0.58,524.91l0.28,54.99
	l0.28,3.93l-0.28,1.05V768h1366.03V653.74l0.22,0l0.89-173.95v-63.98C1367.28,415.98,1366.42,416.2,1365.38,416.45z"/>
<path class="st2" d="M795,546l45-4c-5.13-14.21-27.21-19.91-57.1-31.2c-48.48-18.32-76.3-4.88-75.72-36.14
	c0.54-28.66,2.82-31.16,2.82-31.16l-26.22-0.72c0,0-1.37,11.72-1.37,31.88c0,20.16,30.34,56.36,54.58,78.35l29-4
	C779,547,785,548,795,546z"/>
<g>
	<g>
		<polygon class="st3" points="668.77,288.59 668.88,325.66 692.13,303.1 720.24,328.7 719.37,287.78 		"/>
		<polygon class="st4" points="666.04,284.21 665.98,289.38 721.64,288.91 721.64,284.08 		"/>
	</g>
	<polygon class="st3" points="668.95,284.35 668.43,242.29 717.87,242.6 718.22,284.19 	"/>
	<path class="st3" d="M709.75,235.42L695.05,123.6h0.73c0.32,0,0.59-0.26,0.59-0.59v-0.88c0-0.32-0.26-0.59-0.59-0.59h-1l-0.42-3.2
		l-0.48,3.2h-1.08c-0.32,0-0.59,0.26-0.59,0.59v0.88c0,0.32,0.26,0.59,0.59,0.59h0.77l-17,112.04L709.75,235.42z"/>
	<polygon class="st4" points="714.97,239.79 715.25,235.04 670.25,235.12 670.25,239.55 665.59,239.52 665.59,245.81 720.3,245.96 
		720.3,239.82 	"/>
	<g>
		<line class="st5" x1="694.32" y1="90.93" x2="694.32" y2="121.47"/>
		<line class="st5" x1="683.85" y1="104.88" x2="705.97" y2="104.88"/>
	</g>
	<g>
		<path class="st6" d="M710.64,256.29c-1.12-1.6-2.45-2.32-3.78-2.32h-2.57c-1.61,0-3.22,0.95-4.51,3.08
			c-0.65,1.08-1.1,2.39-1.1,4.47l0.13,22.18l13.5,0.1l-0.33-22.53C711.89,258.47,711.49,257.52,710.64,256.29z"/>
		<path class="st6" d="M686.77,256.68c-1.12-1.6-2.45-2.32-3.78-2.32h-2.57c-1.61,0-3.22,0.95-4.51,3.08
			c-0.65,1.08-1.1,2.39-1.1,4.47l0.13,22.18l13.5,0.1l-0.33-22.53C688.02,258.86,687.62,257.91,686.77,256.68z"/>
		<line class="st6" x1="681.54" y1="254.22" x2="681.54" y2="284.75"/>
		<line class="st6" x1="674.13" y1="268.17" x2="688.22" y2="268.17"/>
		<line class="st6" x1="705.41" y1="254.22" x2="705.41" y2="284.75"/>
		<line class="st6" x1="698.26" y1="268.17" x2="712.48" y2="268.17"/>
	</g>
</g>
<g>
	<path class="st7" d="M810.02,385.84l-33.14-2.31l0.02,1.27l-4.66-0.05l0.89,59.02l38.1-6.26L810.02,385.84z M792.49,420.5
		l-5.93,0.31l-0.04-5.55l-0.04-6.14l-0.03-4.06c0-0.32,0.03-0.6,0.06-0.87c0.13-0.99,0.47-1.71,0.93-2.31
		c1.16-1.52,2.6-2.2,4.04-2.21l2.3-0.02c1.19-0.01,2.39,0.49,3.39,1.62c0.67,0.76,1.03,1.37,1.16,2.83
		c0.02,0.21,0.04,0.44,0.05,0.69l0.01,4.24l0.02,6.14l0.02,5.01L792.49,420.5z"/>
	<polygon class="st8" points="582.3,393.26 582.63,393.24 582.31,393.25 	"/>
	<polygon class="st8" points="619.49,390.5 619.41,384.53 612.01,384.51 612.01,380.82 647.03,346.67 615.22,346.3 583.72,391.25 
		606.28,390.84 	"/>
	<polygon class="st8" points="624.12,378.07 627.24,378.07 627.24,378 	"/>
	<polygon class="st7" points="619.49,390.5 606.28,390.84 619.49,390.6 	"/>
	<polygon class="st7" points="631.97,444.18 631.98,444.09 623.86,444.1 	"/>
	<polygon class="st8" points="776.83,380.64 806.09,383.66 811.88,383.97 736.02,309.28 719.78,309.28 720.29,327.74 776.78,378.13 
			"/>
	<polygon class="st8" points="806.09,383.66 776.83,380.64 776.85,382.13 	"/>
	<polygon class="st8" points="813.3,385.37 813.11,385.19 813.21,385.37 	"/>
	<polygon class="st9" points="620.15,444.11 623.86,444.1 620.15,444.06 	"/>
	<polygon class="st9" points="772.14,384.75 772.93,443.8 773.13,443.77 772.23,384.75 	"/>
	<polygon class="st9" points="619.49,390.6 619.82,390.59 619.77,391.05 635.91,390.09 619.49,390.5 	"/>
	<polygon class="st4" points="612.01,384.51 619.41,384.53 619.41,384.42 627.43,384.35 627.24,378.07 624.12,378.07 620.98,378.13 
		647.01,352.81 650.44,346.74 647.03,346.67 612.01,380.82 	"/>
	<polygon class="st4" points="692.35,308.87 692.49,308.74 692.2,308.75 692.25,308.8 692.26,308.78 	"/>
	<polygon class="st4" points="627.43,378.07 627.24,378.07 627.43,384.35 619.41,384.42 619.41,384.53 627.66,384.55 	"/>
	<polygon class="st4" points="772.13,383.7 772.14,384.75 772.23,384.75 772.22,383.7 	"/>
	<polygon class="st4" points="647.01,352.81 646.96,352.95 692.34,308.88 692.25,308.8 	"/>
	<polygon class="st4" points="620.98,378.13 624.12,378.07 621.11,378.07 646.96,352.95 647.01,352.81 	"/>
	<polygon class="st4" points="692.26,308.78 692.25,308.8 692.34,308.88 692.35,308.87 	"/>
	<polygon class="st4" points="812.52,384 811.88,383.97 813.11,385.19 	"/>
	<polygon class="st4" points="810.02,385.84 813.57,386.09 813.21,385.37 810,385.17 	"/>
	<polygon class="st4" points="809.98,384.07 810,385.17 813.21,385.37 813.11,385.19 811.88,383.97 806.09,383.66 	"/>
	<g>
		<polygon class="st4" points="810.02,385.84 810,385.17 809.98,384.07 806.09,383.66 776.85,382.13 776.83,380.64 776.78,378.13 
			720.29,327.74 720.4,331.89 772.09,381.11 772.13,383.7 772.22,383.7 772.23,384.75 776.9,384.8 776.88,383.53 		"/>
		<polygon class="st4" points="772.29,383.7 772.25,381.11 720.56,331.89 720.45,327.74 692.39,302.71 690.37,304.58 647.2,346.67 
			648.99,346.7 647.17,352.81 692.41,308.8 692.36,308.75 692.65,308.74 692.52,308.87 692.5,308.88 761.49,373.27 767,377.76 
			758.88,377.77 758.95,384.6 772.3,384.75 		"/>
	</g>
	<polygon class="st4" points="579.46,391.32 580.66,393.31 582.31,393.25 583.72,391.25 	"/>
	<polygon class="st4" points="582.63,393.24 587.75,393.06 587.75,392.94 	"/>
	<polygon class="st4" points="587.78,391.3 606.28,390.84 583.72,391.25 582.31,393.25 582.63,393.24 587.75,392.94 	"/>
	<polygon class="st4" points="619.5,391.06 587.75,392.94 587.75,393.06 619.51,391.92 	"/>
	<polygon class="st4" points="606.28,390.84 587.78,391.3 587.75,392.94 619.5,391.06 619.49,390.6 	"/>
	<polygon class="st4" points="619.51,391.92 619.68,391.91 619.77,391.05 619.5,391.06 	"/>
	<polygon class="st4" points="619.49,390.6 619.5,391.06 619.77,391.05 619.82,390.59 	"/>
	<polygon class="st9" points="700.82,423.4 706.99,423.39 706.99,423.18 700.82,423.19 700.81,414.27 700.81,414.27 	"/>
	<path class="st9" d="M694.97,429.62c-0.04,0.04-0.06,0.09-0.06,0.15c0,0.13,0.11,0.23,0.24,0.23s0.24-0.1,0.24-0.23
		c0-0.06-0.03-0.11-0.06-0.15c-0.04,0.05-0.11,0.08-0.18,0.08S695.01,429.67,694.97,429.62z"/>
	<rect x="686.05" y="441.73" class="st9" width="6.75" height="0.47"/>
	<polygon class="st9" points="700.44,428.02 700.44,428.02 700.46,442.22 707.21,442.21 707.21,441.72 700.46,441.73 	"/>
	<path class="st9" d="M698.04,429.64c-0.04,0.04-0.07,0.1-0.07,0.16c0,0.13,0.11,0.23,0.24,0.23s0.24-0.1,0.24-0.23
		c0-0.06-0.03-0.11-0.07-0.16c-0.04,0.04-0.11,0.07-0.18,0.07S698.08,429.69,698.04,429.64z"/>
	<path class="st9" d="M686.54,409.27l10.2,0.16v0l7.14-0.15L686.54,409.27l-0.36,0C686.34,409.28,686.54,409.27,686.54,409.27z"/>
	<rect x="686.24" y="423.2" class="st9" width="6.16" height="0.2"/>
	<path class="st9" d="M709.37,409.86c-0.16-0.51-0.38-0.64-0.68-0.65C709,409.31,709.22,409.5,709.37,409.86z"/>
	<path class="st9" d="M709.6,411.2c0,0.03,0.01,0.06,0.01,0.09l0.08,6.56l0-0.13l-0.08-6.46C709.61,411.24,709.6,411.22,709.6,411.2
		z"/>
	<path class="st9" d="M684.37,409.27l0.02,0L684.37,409.27c-0.71,0-1.03,0.51-1.27,1.33l0,0.02
		C683.34,409.79,683.67,409.27,684.37,409.27z"/>
	<path class="st10" d="M707.03,409.22c0.03,0,0.04-0.01,0.04-0.01l0.62-0.1c0.4,0,0.73,0.02,1.01,0.1c0.3,0.01,0.52,0.14,0.68,0.65
		c0.13,0.3,0.2,0.73,0.23,1.34c0,0.02,0,0.04,0.01,0.06l0.08,6.46l0-6.69c0-3.38-1.2-5.41-2.9-7.07c-0.08-0.07-0.16-0.14-0.23-0.21
		l-3.04,1.81C705,406.5,706.18,407.76,707.03,409.22z"/>
	<path class="st10" d="M683.1,410.63l0-0.02c0.24-0.82,0.57-1.34,1.27-1.34h0.02l1.61-0.06c-0.03,0.04,0.06,0.06,0.18,0.07l0.36,0
		c0.34-0.47,1.5-1.95,3.41-3.27l-3.72-1.85l3.72,1.85c0.78-0.54,1.67-1.05,2.69-1.44l-2.46-2.66l2.46,2.66
		c1.21-0.47,2.59-0.77,4.11-0.79l-0.01-2.88l0.01,2.88c0.16,0,0.32-0.02,0.48-0.01c1.08,0.03,2.07,0.19,3.01,0.43l1.73-2.72
		l-1.73,2.72c1.22,0.31,2.31,0.78,3.28,1.38l3.04-1.81c-1.83-1.68-3.93-2.39-6.08-2.76c-0.7-0.12-1.42-0.18-2.13-0.18h-2.73
		c-1.06,0-2.11,0.1-3.15,0.32c-2.62,0.56-5.19,1.47-7.31,3.85c-1.07,1.2-1.87,2.61-2.12,4.64c-0.05,0.44-0.08,0.91-0.08,1.41
		l0.17,7.97L683.1,410.63C683.1,410.63,683.1,410.63,683.1,410.63z"/>
	<path class="st10" d="M706.48,409.24c-0.02-0.04,0.42,0,0.55-0.02c-0.85-1.47-2.03-2.72-3.52-3.65l-3.33,1.99
		c0.4,0.41,0.73,0.9,1.01,1.43h-3.41l-0.21,0.12l0.21-0.12h-1.84l0.18,0.09l-0.18-0.09h-4.06c0,0,0.22-0.77,1.06-1.49l-3-1.49
		c-1.9,1.32-3.06,2.8-3.41,3.27l17.33,0.02L706.48,409.24z"/>
	<path class="st10" d="M700.18,407.55l3.33-1.99c-0.96-0.61-2.06-1.07-3.28-1.38l-1.53,2.41
		C699.29,406.82,699.78,407.15,700.18,407.55z"/>
	<path class="st10" d="M694.53,406.62l-1.9-2.06c-1.01,0.4-1.91,0.91-2.69,1.44l3,1.49C693.33,407.16,693.85,406.85,694.53,406.62z"
		/>
	<path class="st10" d="M696.73,406.27c0.01,0,0.02,0,0.03,0l-0.01-2.51c-1.52,0.02-2.9,0.31-4.11,0.79l1.9,2.06
		C695.13,406.42,695.85,406.28,696.73,406.27z"/>
	<path class="st10" d="M698.7,406.6l1.53-2.41c-0.93-0.24-1.93-0.39-3.01-0.43c-0.16-0.01-0.32,0.01-0.48,0.01l0.01,2.51
		C697.52,406.27,698.15,406.39,698.7,406.6z"/>
	<path class="st10" d="M691.88,408.99h4.06l-3-1.49C692.1,408.21,691.88,408.99,691.88,408.99z"/>
	<path class="st10" d="M697.46,408.55l1.24-1.95c-0.55-0.21-1.18-0.33-1.95-0.32l0.01,2.49l-0.01-2.49c-0.01,0-0.02,0-0.03,0
		c-0.88,0.01-1.6,0.14-2.19,0.34l1.76,1.9l-1.76-1.9c-0.69,0.23-1.21,0.55-1.59,0.88l3,1.49h1.84l2.4-1.43
		c-0.4-0.41-0.88-0.73-1.48-0.96L697.46,408.55z"/>
	<path class="st10" d="M701.19,408.99c-0.28-0.53-0.61-1.02-1.01-1.43l-2.4,1.43H701.19z"/>
	<polygon class="st11" points="683.23,444.03 683.23,444.31 696.74,444.36 696.74,444.01 	"/>
	<polygon class="st11" points="696.74,443.9 696.74,443.87 683.65,443.84 683.13,419.2 683.23,444.03 696.74,444.01 	"/>
	<polygon class="st11" points="696.74,444.36 710,444.42 709.99,443.99 696.74,444.01 	"/>
	<polygon class="st11" points="709.68,417.85 709.68,417.86 709.67,443.93 696.74,443.9 696.74,444.01 709.99,443.99 709.68,417.73 
			"/>
	<path class="st4" d="M709.6,411.2c-0.06-0.61-0.14-1.04-0.23-1.34c-0.15-0.36-0.38-0.56-0.68-0.65c-0.28-0.01-0.64,0.09-1.09,0.09
		l-0.52,0l-3.2,0l-7.14,0.15v33.94l12.94,0.03l0.01-25.56l-0.08-6.56C709.61,411.26,709.6,411.23,709.6,411.2z M700.81,414.19
		l4.08-0.01c1.15,0,2.08,0.93,2.08,2.08l0.01,6.92h0l0,0.21l-6.16,0.01l-0.01-9.14h0L700.81,414.19z M698.46,429.8
		c0,0.13-0.11,0.23-0.24,0.23v0.99v-0.99c-0.14,0-0.24-0.1-0.24-0.23c0-0.06,0.03-0.11,0.07-0.16c-0.04-0.04-0.07-0.09-0.07-0.15
		c0-0.13,0.11-0.23,0.24-0.23s0.24,0.1,0.24,0.23c0,0.06-0.03,0.11-0.07,0.15C698.43,429.68,698.46,429.74,698.46,429.8z
		 M707.21,442.21l-6.75,0.01l-0.02-14.2h0l0-0.28l6.75-0.01l0.02,13.99h0L707.21,442.21z"/>
	<path class="st4" d="M709.37,409.86c0.09,0.3,0.17,0.73,0.23,1.34C709.58,410.59,709.5,410.17,709.37,409.86z"/>
	<path class="st4" d="M707.6,409.3c0.46,0,0.81-0.09,1.09-0.09c-0.27-0.08-0.6-0.1-1.01-0.1l-0.62,0.1c0,0.01-0.01,0.01-0.04,0.01
		c0.02,0.03,0.03,0.05,0.05,0.08L707.6,409.3z"/>
	<path class="st4" d="M706.48,409.24l-2.6,0.05l3.2,0c-0.01-0.03-0.03-0.05-0.05-0.08C706.9,409.24,706.46,409.2,706.48,409.24z"/>
	<polygon class="st4" points="696.74,443.38 696.74,443.87 696.74,443.9 709.67,443.93 709.68,417.86 709.68,417.85 709.67,443.41 	
		"/>
	<polygon class="st4" points="683.13,419 683.13,419.17 683.13,419.2 683.13,419.03 	"/>
	<path class="st4" d="M696.74,409.44l-10.2-0.16c0,0-0.2,0.01-0.36,0l-1.79,0l-0.02,0c-0.71,0-1.03,0.52-1.27,1.35l0.03,8.41
		l0.52,24.32l13.08,0.03V409.44L696.74,409.44z M686.24,423.2v-6.82v-0.1c0-1.15,0.93-2.08,2.08-2.08h4.08v0.07v8.93v0.2h-6.16
		V423.2z M692.8,428.01v13.72v0.47h-6.75v-0.47v-13.72v-0.27h6.75V428.01z M695.39,429.76c0,0.13-0.11,0.23-0.24,0.23v0.99v-0.99
		c-0.14,0-0.24-0.1-0.24-0.23c0-0.06,0.03-0.11,0.06-0.15c-0.04-0.04-0.06-0.09-0.06-0.14c0-0.13,0.11-0.23,0.24-0.23
		s0.24,0.1,0.24,0.23c0,0.06-0.03,0.1-0.06,0.14C695.36,429.66,695.39,429.71,695.39,429.76z"/>
	<path class="st4" d="M686,409.21l-1.61,0.06l1.79,0C686.06,409.27,685.97,409.25,686,409.21z"/>
	<polygon class="st4" points="683.1,410.63 683.1,410.63 683.11,418.57 683.13,419.03 	"/>
	<polygon class="st4" points="696.74,443.87 696.74,443.38 683.65,443.35 683.13,419.03 683.13,419.2 683.65,443.84 	"/>
	<rect x="686.05" y="428.01" class="st11" width="6.75" height="13.72"/>
	<rect x="686.05" y="427.74" class="st11" width="6.75" height="0.27"/>
	<path class="st11" d="M692.41,414.27h-4.08c-1.15,0-2.08,0.94-2.08,2.11v6.82h6.16V414.27z"/>
	<path class="st11" d="M688.32,414.27h4.08v-0.07h-4.08c-1.15,0-2.08,0.93-2.08,2.08v0.1C686.24,415.21,687.18,414.27,688.32,414.27
		z"/>
	
		<rect x="700.45" y="428.02" transform="matrix(1 -1.384954e-03 1.384954e-03 1 -0.6016 0.9752)" class="st11" width="6.75" height="13.71"/>
	<polygon class="st11" points="707.19,427.73 700.44,427.74 700.44,428.02 707.19,428.01 707.21,441.72 707.21,441.72 	"/>
	<path class="st11" d="M706.99,423.18l-0.01-6.81c0-1.17-0.93-2.11-2.08-2.11l-4.08,0.01l0.01,8.92L706.99,423.18z"/>
	<path class="st11" d="M706.98,416.37l0.01,6.81h0l-0.01-6.92c0-1.15-0.93-2.08-2.08-2.08l-4.08,0.01l0,0.08l4.08-0.01
		C706.04,414.26,706.97,415.2,706.98,416.37z"/>
	<path class="st11" d="M698.21,429.57c-0.07,0-0.13,0.03-0.18,0.08c0.04,0.04,0.11,0.07,0.18,0.07V429.57z"/>
	<path class="st11" d="M698.21,429.72c0.07,0,0.13-0.03,0.18-0.07c-0.04-0.05-0.11-0.08-0.18-0.08V429.72z"/>
	<path class="st11" d="M698.21,429.26c-0.14,0-0.24,0.1-0.24,0.23c0,0.06,0.03,0.11,0.07,0.15c0.04-0.05,0.11-0.08,0.18-0.08v-0.08
		v0.08c0.07,0,0.13,0.03,0.18,0.08c0.04-0.04,0.07-0.09,0.07-0.15C698.46,429.36,698.35,429.26,698.21,429.26z"/>
	<path class="st11" d="M695.15,429.7c0.07,0,0.14-0.03,0.18-0.08c-0.04-0.05-0.11-0.09-0.18-0.09V429.7z"/>
	<path class="st11" d="M695.15,429.53c-0.07,0-0.14,0.04-0.18,0.09c0.04,0.05,0.11,0.08,0.18,0.08V429.53z"/>
	<path class="st11" d="M695.15,429.24c-0.14,0-0.24,0.1-0.24,0.23c0,0.06,0.03,0.1,0.06,0.14c0.04-0.05,0.11-0.09,0.18-0.09v-0.06
		v0.06c0.07,0,0.14,0.04,0.18,0.09c0.04-0.04,0.06-0.09,0.06-0.14C695.39,429.35,695.28,429.24,695.15,429.24z"/>
	<path class="st12" d="M797.17,401.28c-1-1.13-2.19-1.63-3.39-1.62l-2.3,0.02c-1.44,0.01-2.89,0.69-4.04,2.21
		c-0.46,0.6-0.8,1.32-0.93,2.31l11.82-0.09C798.19,402.65,797.84,402.04,797.17,401.28z"/>
	<path class="st12" d="M792.49,404.24l0,4.83l5.9-0.04l-0.01-4.24c-0.01-0.25-0.03-0.48-0.05-0.69l-11.82,0.09
		c-0.04,0.27-0.06,0.55-0.06,0.87l0.03,4.06l6.02-0.04L792.49,404.24z"/>
	<polygon class="st12" points="792.49,409.08 786.47,409.12 786.52,415.26 792.49,415.22 	"/>
	<polygon class="st12" points="792.49,415.22 792.49,420.5 798.43,420.18 798.41,415.17 	"/>
	<polygon class="st12" points="786.52,415.26 786.56,420.81 792.49,420.5 792.49,415.22 	"/>
	<polygon class="st12" points="792.49,415.22 798.41,415.17 798.39,409.03 792.49,409.08 	"/>
	<path class="st12" d="M608.69,403.79c-1.1-1.13-2.4-1.62-3.69-1.61l-2.5,0.02c-1.57,0.01-3.13,0.69-4.37,2.21
		c-0.49,0.6-0.86,1.32-0.99,2.3l12.84-0.1C609.82,405.15,609.42,404.55,608.69,403.79z"/>
	<polygon class="st12" points="603.72,417.7 610.15,417.65 610.08,411.53 603.67,411.58 	"/>
	<polygon class="st12" points="597.05,417.75 597.04,422.87 603.76,422.94 603.72,417.7 	"/>
	<polygon class="st12" points="603.72,417.7 603.76,422.94 610.22,423 610.15,417.65 	"/>
	<polygon class="st12" points="603.67,411.58 597.07,411.63 597.05,417.75 603.72,417.7 	"/>
	<path class="st12" d="M603.64,406.76l0.04,4.82l6.41-0.05l-0.05-4.23c-0.01-0.25-0.03-0.48-0.06-0.69l-12.84,0.1
		c-0.04,0.27-0.06,0.55-0.06,0.87l-0.01,4.05l6.61-0.05L603.64,406.76z"/>
	<path class="st6" d="M667.34,376.33c-1.09-1.14-2.38-1.64-3.68-1.64h-2.5c-1.57,0-3.14,0.67-4.39,2.18c-0.5,0.6-0.87,1.31-1.01,2.3
		h12.84C668.46,377.7,668.07,377.09,667.34,376.33z"/>
	<path class="st6" d="M662.27,379.26v4.82h6.48l-0.08-4.23c-0.01-0.25-0.03-0.48-0.05-0.69h-12.84c-0.04,0.27-0.07,0.55-0.07,0.87
		l0.03,4.05h6.54V379.26z"/>
	<polygon class="st6" points="662.27,395.11 668.96,395.09 668.87,390.2 662.27,390.2 	"/>
	<polygon class="st6" points="662.27,390.2 668.87,390.2 668.74,384.08 662.27,384.08 	"/>
	<polygon class="st6" points="662.27,384.08 655.73,384.08 655.78,390.2 662.27,390.2 	"/>
	<polygon class="st6" points="662.27,390.2 655.78,390.2 655.82,395.14 662.27,395.11 	"/>
	<polygon class="st4" points="668.98,395.8 655.83,395.74 655.82,395.14 654.57,395.14 654.57,398.48 669.92,398.41 670.02,395.09 
		668.96,395.09 	"/>
	<polygon class="st4" points="668.98,395.8 668.96,395.09 662.27,395.11 662.27,395.52 662.27,395.11 655.82,395.14 655.83,395.74 	
		"/>
	<path class="st6" d="M733.15,375.09c-1.09-1.14-2.38-1.64-3.68-1.64h-2.5c-1.57,0-3.14,0.67-4.39,2.18c-0.5,0.6-0.87,1.31-1.01,2.3
		h12.84C734.26,376.46,733.88,375.85,733.15,375.09z"/>
	<polygon class="st6" points="728.07,382.84 721.54,382.84 721.59,388.96 728.07,388.96 	"/>
	<polygon class="st6" points="734.67,388.96 728.07,388.96 728.07,394.28 728.07,388.96 721.59,388.96 721.63,394.49 734.78,394.44 
			"/>
	<polygon class="st6" points="728.07,388.96 734.67,388.96 734.55,382.84 728.07,382.84 	"/>
	<path class="st6" d="M728.07,378.02v4.82h6.48l-0.08-4.23c-0.01-0.25-0.03-0.48-0.05-0.69h-12.84c-0.04,0.27-0.07,0.55-0.07,0.87
		l0.03,4.05h6.54V378.02z"/>
	<polygon class="st4" points="734.78,394.57 721.63,394.5 721.63,394.49 720.57,394.49 720.57,397.83 735.92,397.76 736.02,394.43 
		734.78,394.44 	"/>
	<polygon class="st4" points="734.78,394.57 734.78,394.44 721.63,394.49 721.63,394.5 	"/>
	<polygon class="st6" points="634.25,444.09 634.25,444.13 640.45,444.18 640.45,444.08 	"/>
	<polygon class="st6" points="640.45,444.18 647.75,444.23 647.75,444.07 640.45,444.08 	"/>
	<path class="st6" d="M646.07,416.73c-1.12-1.6-2.45-2.32-3.78-2.32h-2.57c-1.61,0-3.22,0.95-4.51,3.08
		c-0.51,0.85-0.9,1.84-1.04,3.24h13.08h-13.08c-0.04,0.38-0.06,0.79-0.06,1.23l0.13,22.14l6.2-0.01v-23.04v23.04l7.29-0.01
		l-0.32-22.38C647.33,418.91,646.93,417.96,646.07,416.73z"/>
	<polygon class="st6" points="749.43,443.98 756.34,444.03 756.34,443.94 749.43,443.94 	"/>
	<path class="st6" d="M754.66,416.53c-1.12-1.6-2.45-2.32-3.78-2.32h-2.57c-1.61,0-3.22,0.95-4.51,3.08
		c-0.57,0.95-0.99,2.08-1.08,3.76h6.71v-0.07v0.07h6.55h-6.55v22.9l6.9-0.01l-0.32-22.44C755.91,418.71,755.52,417.76,754.66,416.53
		z"/>
	<polygon class="st6" points="744.87,443.95 749.43,443.98 749.43,443.94 	"/>
	<path class="st6" d="M749.43,421.04h-6.71c-0.01,0.23-0.02,0.46-0.02,0.71l0.13,22.18l2.03,0.01l4.56-0.01V421.04z"/>
	<path class="st6" d="M708.26,360.67l0.07,0c-0.06-2.47-0.7-4.79-1.78-6.81l-0.1,0.06C707.53,355.92,708.18,358.22,708.26,360.67z"
		/>
	<path class="st6" d="M694.46,346.58c0.02,0,0.04,0,0.07,0v-0.13c-5.28,0-9.87,3.13-12.2,7.72
		C684.67,349.65,689.22,346.58,694.46,346.58z"/>
	<path class="st6" d="M706.44,353.92l0.1-0.06c-2.38-4.42-6.87-7.4-12.02-7.4v0.13C699.62,346.61,704.07,349.56,706.44,353.92z"/>
	<path class="st6" d="M706.65,368.05c0.09-0.18,0.17-0.37,0.26-0.56l0,0C706.82,367.68,706.74,367.87,706.65,368.05z"/>
	<path class="st6" d="M708.26,360.67c0.01,0.17,0.02,0.33,0.02,0.5c0,2.27-0.5,4.4-1.38,6.31l0,0c0.91-1.95,1.44-4.13,1.44-6.45
		c0-0.13-0.02-0.25-0.02-0.38L708.26,360.67z"/>
	<path class="st6" d="M682.33,354.17c-0.17,0.33-0.32,0.67-0.47,1.02l0,0C682,354.84,682.16,354.5,682.33,354.17z"/>
	<path class="st6" d="M680.69,361.05c0-2.08,0.42-4.06,1.17-5.86l0,0c-0.78,1.83-1.23,3.85-1.23,5.99c0,0.3,0.03,0.59,0.04,0.89
		l0.07,0C680.72,361.72,680.69,361.39,680.69,361.05z"/>
	<path class="st6" d="M702.45,372.99l0.04,0.05c1.72-1.3,3.16-3.01,4.17-4.99C705.63,370.02,704.18,371.71,702.45,372.99z"/>
	<path class="st6" d="M680.74,362.06l-0.07,0c0.14,2.44,0.84,4.71,1.98,6.68l0.1-0.06C681.61,366.73,680.9,364.48,680.74,362.06z"/>
	<path class="st6" d="M694.52,375.64c-2.58,0-4.99-0.76-7.06-2.06l-0.07,0.13c2.07,1.3,4.48,2.07,7.07,2.07c3,0,5.77-1.02,8.03-2.73
		l-0.04-0.05C700.2,374.66,697.47,375.64,694.52,375.64z"/>
	<path class="st6" d="M682.75,368.68l-0.1,0.06c1.17,2.04,2.8,3.74,4.74,4.96l0.07-0.13C685.54,372.37,683.92,370.69,682.75,368.68z
		"/>
	<path class="st6" d="M701.29,364.73c-0.56,1.21-1.42,2.25-2.48,3.02l3.65,5.25c1.73-1.28,3.18-2.97,4.2-4.94
		c0.09-0.18,0.17-0.37,0.26-0.56L701.29,364.73z"/>
	<path class="st6" d="M687.54,357.98l-5.68-2.79c-0.75,1.79-1.17,3.77-1.17,5.86c0,0.34,0.03,0.68,0.05,1.01l6.24-0.31
		C686.88,360.41,687.08,359.13,687.54,357.98z"/>
	<path class="st6" d="M694.52,369.11v6.53c2.95,0,5.68-0.99,7.93-2.65l-3.65-5.25c-0.96,0.69-2.09,1.16-3.34,1.31
		C695.15,369.1,694.83,369.11,694.52,369.11z"/>
	<path class="st6" d="M690.6,367.91l-3.14,5.67c2.07,1.3,4.48,2.06,7.06,2.06v-6.53C693.1,369.09,691.76,368.66,690.6,367.91z"/>
	<path class="st6" d="M688.13,365.33l-5.38,3.35c1.17,2.01,2.79,3.69,4.71,4.9l3.14-5.67C689.61,367.27,688.76,366.38,688.13,365.33
		z"/>
	<path class="st6" d="M701.05,357.28c0.48,0.89,0.81,1.88,0.94,2.96c0.03,0.25,0.05,0.5,0.06,0.75l6.22-0.31
		c-0.08-2.45-0.73-4.75-1.82-6.75L701.05,357.28z"/>
	<path class="st6" d="M687.54,357.98c0.5-1.24,1.29-2.32,2.29-3.14l-3.69-5.3l3.69,5.3c1.04-0.85,2.29-1.42,3.69-1.59
		c0.33-0.04,0.66-0.05,0.99-0.04v-6.62c-0.02,0-0.04,0-0.07,0c-5.23,0-9.78,3.07-12.13,7.59c-0.17,0.33-0.32,0.67-0.46,1.02
		L687.54,357.98z"/>
	<path class="st6" d="M687.01,362.07c-0.01-0.11-0.02-0.22-0.02-0.33l-6.24,0.31c0.16,2.42,0.87,4.67,2.01,6.62l5.38-3.35
		C687.56,364.37,687.16,363.27,687.01,362.07z"/>
	<path class="st6" d="M701.29,364.73l5.62,2.76c0.87-1.91,1.38-4.05,1.38-6.31c0-0.17-0.02-0.34-0.02-0.5l-6.22,0.31
		C702.09,362.32,701.81,363.6,701.29,364.73z"/>
	<path class="st6" d="M701.3,348.63l-3.13,5.64c1.19,0.71,2.19,1.75,2.87,3.02l5.4-3.36c-2.38-4.36-6.82-7.31-11.92-7.34v6.62
		c1.31,0.02,2.56,0.4,3.65,1.06L701.3,348.63z"/>
	<path class="st6" d="M698.17,354.27l-3.43,6.18c0.23,0.07,0.42,0.22,0.53,0.43l5.77-3.59
		C700.36,356.02,699.36,354.98,698.17,354.27z"/>
	<path class="st6" d="M695.39,361.27c0,0.02-0.01,0.03-0.01,0.05l6.66-0.34c-0.01-0.25-0.02-0.5-0.06-0.75
		c-0.13-1.07-0.46-2.07-0.94-2.96l-5.77,3.59C695.35,361,695.39,361.13,695.39,361.27z"/>
	<path class="st6" d="M693.91,361.96l-3.3,5.95c1.15,0.75,2.5,1.18,3.92,1.19v-6.97c-0.02,0-0.04,0.01-0.06,0.01
		C694.25,362.15,694.06,362.07,693.91,361.96z"/>
	<path class="st6" d="M693.76,361.82l-5.63,3.5c0.63,1.05,1.48,1.94,2.47,2.58l3.3-5.95C693.85,361.92,693.8,361.88,693.76,361.82z"
		/>
	<path class="st6" d="M693.56,361.41l-6.58,0.33c0.01,0.11,0.01,0.22,0.02,0.33c0.15,1.2,0.54,2.29,1.12,3.25l5.63-3.5
		C693.65,361.71,693.59,361.57,693.56,361.41z"/>
	<path class="st6" d="M695.38,361.32c-0.01,0.16-0.07,0.3-0.16,0.43l6.06,2.98c0.53-1.13,0.8-2.41,0.76-3.74L695.38,361.32z"/>
	<path class="st6" d="M694.74,360.45l3.43-6.18c-1.09-0.66-2.34-1.04-3.65-1.06v7.2C694.6,360.41,694.67,360.42,694.74,360.45z"/>
	<path class="st6" d="M686.99,361.74l6.58-0.33c-0.01-0.05-0.03-0.09-0.03-0.14c0-0.11,0.03-0.22,0.07-0.32l-6.06-2.97
		C687.08,359.13,686.88,360.41,686.99,361.74z"/>
	<path class="st6" d="M694.52,362.14v6.97c0.31,0,0.63-0.01,0.95-0.05c1.24-0.15,2.37-0.62,3.34-1.31l-3.95-5.68
		C694.75,362.11,694.64,362.13,694.52,362.14z"/>
	<path class="st6" d="M693.85,360.62l-4.01-5.78c-1.01,0.82-1.8,1.9-2.29,3.14l6.06,2.97C693.65,360.82,693.74,360.71,693.85,360.62
		z"/>
	<path class="st6" d="M694.85,362.06l3.95,5.68c1.06-0.76,1.92-1.8,2.48-3.02l-6.06-2.98C695.13,361.88,695.01,361.99,694.85,362.06
		z"/>
	<path class="st6" d="M694.46,360.39c0.02,0,0.04,0.01,0.06,0.01v-7.2c-0.33-0.01-0.66,0-0.99,0.04c-1.4,0.17-2.66,0.75-3.69,1.59
		l4.01,5.78C694.02,360.48,694.23,360.39,694.46,360.39z"/>
	<polygon class="st13" points="694.23,361.38 694.1,361.61 694.41,361.42 694.37,361.37 	"/>
	<polygon class="st13" points="694.44,361.37 694.37,361.37 694.41,361.42 694.47,361.38 	"/>
	<polygon class="st13" points="694.52,361.36 694.52,361.35 694.49,361.37 	"/>
	<polygon class="st13" points="694.41,361.42 694.52,361.58 694.52,361.41 694.47,361.38 	"/>
	<polygon class="st13" points="694.34,361.32 694.28,361.29 694.23,361.38 694.37,361.37 	"/>
	<path class="st13" d="M693.91,361.96l0.19-0.35l-0.34,0.21C693.8,361.88,693.85,361.92,693.91,361.96z"/>
	<polygon class="st13" points="694.29,361.26 694.28,361.29 694.34,361.32 	"/>
	<polygon class="st13" points="694.49,361.37 694.44,361.37 694.47,361.38 	"/>
	<polygon class="st13" points="694.44,361.37 694.34,361.32 694.37,361.37 	"/>
	<polygon class="st13" points="694.29,361.26 694.34,361.32 694.44,361.37 694.49,361.37 694.52,361.35 694.52,360.85 	"/>
	<polygon class="st13" points="694.47,361.38 694.52,361.41 694.52,361.36 694.49,361.37 	"/>
	<path class="st13" d="M694.52,362.14c0.12-0.01,0.23-0.03,0.33-0.08l-0.33-0.48V362.14z"/>
	<path class="st13" d="M694.52,361.58l0.33,0.48c0.15-0.07,0.27-0.18,0.37-0.31l-0.7-0.34V361.58z"/>
	<path class="st13" d="M694.52,361.41l0.7,0.34c0.09-0.13,0.15-0.27,0.16-0.43l-0.86,0.04V361.41z"/>
	<path class="st13" d="M694.41,361.42l-0.31,0.19l-0.19,0.35c0.16,0.11,0.34,0.19,0.56,0.19c0.02,0,0.04-0.01,0.06-0.01v-0.56
		L694.41,361.42z"/>
	<path class="st13" d="M695.28,360.87l-0.76,0.47v0.02l0.86-0.04c0-0.02,0.01-0.03,0.01-0.05
		C695.39,361.13,695.35,361,695.28,360.87z"/>
	<path class="st13" d="M694.1,361.61l0.13-0.23l-0.66,0.03c0.03,0.16,0.09,0.3,0.19,0.41L694.1,361.61z"/>
	<path class="st13" d="M694.74,360.45c-0.07-0.02-0.15-0.04-0.22-0.04v0.45L694.74,360.45z"/>
	<path class="st13" d="M694.52,360.85v-0.45c-0.02,0-0.04-0.01-0.06-0.01c-0.24,0-0.45,0.09-0.61,0.23l0.44,0.64L694.52,360.85z"/>
	<path class="st13" d="M694.52,361.35l0.76-0.47c-0.11-0.2-0.3-0.36-0.53-0.43l-0.22,0.4V361.35z"/>
	<path class="st13" d="M694.28,361.29l-0.68-0.33c-0.04,0.1-0.07,0.2-0.07,0.32c0,0.05,0.02,0.09,0.03,0.14l0.66-0.03L694.28,361.29
		z"/>
	<path class="st13" d="M694.29,361.26l-0.44-0.64c-0.11,0.09-0.2,0.2-0.25,0.34l0.68,0.33L694.29,361.26z"/>
</g>
<path class="st14" d="M706.54,353.92c-2.38-4.42-6.87-7.4-12.02-7.4c-5.28,0-9.87,3.13-12.2,7.72c-0.17,0.33-0.32,0.67-0.47,1.02
	c-0.78,1.83-1.23,3.85-1.23,5.99c0,0.3,0.03,0.59,0.04,0.89c0.14,2.44,0.84,4.71,1.98,6.68c1.17,2.04,2.8,3.74,4.74,4.96
	c2.07,1.3,4.48,2.07,7.07,2.07c3,0,5.77-1.02,8.03-2.73c1.72-1.3,3.16-3.01,4.17-4.99c0.09-0.18,0.17-0.37,0.26-0.56
	c0.91-1.95,1.44-4.13,1.44-6.45c0-0.13-0.02-0.25-0.02-0.38C708.26,358.26,707.63,355.94,706.54,353.92z"/>
<path class="st14" d="M668.86,390.27l-0.12-6.13l-0.08-4.23c-0.01-0.25-0.03-0.48-0.05-0.69c-0.15-1.46-0.54-2.07-1.27-2.83
	c-1.09-1.14-2.38-1.64-3.68-1.64h-2.5c-1.57,0-3.14,0.67-4.39,2.18c-0.5,0.6-0.87,1.31-1.01,2.3c-0.04,0.27-0.07,0.55-0.07,0.87
	l0.03,4.05l0.05,6.13l0.04,4.94l-1.26,0v3.34l15.36-0.07l0.1-3.33l-1.06,0L668.86,390.27z"/>
<path class="st14" d="M734.67,389.03l-0.12-6.13l-0.08-4.23c-0.01-0.25-0.03-0.48-0.05-0.69c-0.15-1.46-0.54-2.07-1.27-2.83
	c-1.09-1.14-2.38-1.64-3.68-1.64h-2.5c-1.57,0-3.14,0.67-4.39,2.18c-0.5,0.6-0.87,1.31-1.01,2.3c-0.04,0.27-0.07,0.55-0.07,0.87
	l0.03,4.05l0.05,6.13l0.04,5.52l-1.06,0v3.34l15.36-0.07l0.1-3.33l-1.24,0L734.67,389.03z"/>
<path class="st14" d="M706.54,353.92c-2.38-4.42-6.87-7.4-12.02-7.4c-5.28,0-9.87,3.13-12.2,7.72c-0.17,0.33-0.32,0.67-0.47,1.02
	c-0.78,1.83-1.23,3.85-1.23,5.99c0,0.3,0.03,0.59,0.04,0.89c0.14,2.44,0.84,4.71,1.98,6.68c1.17,2.04,2.8,3.74,4.74,4.96
	c2.07,1.3,4.48,2.07,7.07,2.07c3,0,5.77-1.02,8.03-2.73c1.72-1.3,3.16-3.01,4.17-4.99c0.09-0.18,0.17-0.37,0.26-0.56
	c0.91-1.95,1.44-4.13,1.44-6.45c0-0.13-0.02-0.25-0.02-0.38C708.26,358.26,707.63,355.94,706.54,353.92z"/>
<path class="st14" d="M668.86,390.27l-0.12-6.13l-0.08-4.23c-0.01-0.25-0.03-0.48-0.05-0.69c-0.15-1.46-0.54-2.07-1.27-2.83
	c-1.09-1.14-2.38-1.64-3.68-1.64h-2.5c-1.57,0-3.14,0.67-4.39,2.18c-0.5,0.6-0.87,1.31-1.01,2.3c-0.04,0.27-0.07,0.55-0.07,0.87
	l0.03,4.05l0.05,6.13l0.04,4.94l-1.26,0v3.34l15.36-0.07l0.1-3.33l-1.06,0L668.86,390.27z"/>
<path class="st14" d="M610.08,411.53l-0.05-4.23c-0.01-0.25-0.03-0.48-0.06-0.69c-0.16-1.46-0.55-2.07-1.29-2.82
	c-1.1-1.13-2.4-1.62-3.69-1.61l-2.5,0.02c-1.57,0.01-3.13,0.69-4.37,2.21c-0.49,0.6-0.86,1.32-0.99,2.3
	c-0.04,0.27-0.06,0.55-0.06,0.87l-0.01,4.05l-0.01,6.13l-0.01,5.11l6.72,0.07l6.45,0.06l-0.06-5.35L610.08,411.53z"/>
<path class="st14" d="M734.67,389.03l-0.12-6.13l-0.08-4.23c-0.01-0.25-0.03-0.48-0.05-0.69c-0.15-1.46-0.54-2.07-1.27-2.83
	c-1.09-1.14-2.38-1.64-3.68-1.64h-2.5c-1.57,0-3.14,0.67-4.39,2.18c-0.5,0.6-0.87,1.31-1.01,2.3c-0.04,0.27-0.07,0.55-0.07,0.87
	l0.03,4.05l0.05,6.13l0.04,5.52l-1.06,0v3.34l15.36-0.07l0.1-3.33l-1.24,0L734.67,389.03z"/>
<path class="st7" d="M587.75,393.06l-1.01,50.68l33.41,0.33l-0.64-52.14L587.75,393.06z M603.76,422.94l-6.72-0.07l0.01-5.11
	l0.01-6.13l0.01-4.05c0-0.32,0.02-0.6,0.06-0.87c0.13-0.99,0.5-1.7,0.99-2.3c1.24-1.52,2.81-2.2,4.37-2.21l2.5-0.02
	c1.3-0.01,2.6,0.49,3.69,1.61c0.73,0.75,1.13,1.36,1.29,2.82c0.02,0.21,0.04,0.44,0.06,0.69l0.05,4.23l0.07,6.13l0.06,5.35
	L603.76,422.94z"/>
<path class="st9" d="M646.96,352.95l-25.86,25.11h3.01l3.12-0.07l0,0.07h0.19l0.23,6.49l-8.25-0.03l0.07,5.98l0.35-0.01l-0.16,1.42
	l-0.17,0.01l0.64,52.14l3.71,0.04l8.12-0.01l0,0.07l2.27,0l-0.13-22.14c0-0.45,0.02-0.85,0.06-1.23c0.14-1.39,0.53-2.39,1.04-3.24
	c1.29-2.13,2.9-3.08,4.51-3.08h2.57c1.33,0,2.66,0.72,3.78,2.32c0.86,1.23,1.25,2.18,1.35,4.97l0.32,22.38l35.48-0.04l-0.1-24.82
	l0-0.03l0-0.17l-0.17-7.97c0-0.5,0.03-0.97,0.08-1.41c0.25-2.03,1.05-3.44,2.12-4.64c2.12-2.38,4.69-3.29,7.31-3.85
	c1.03-0.22,2.09-0.32,3.15-0.32h2.73c0.71,0,1.43,0.06,2.13,0.18c2.15,0.37,4.24,1.08,6.08,2.76c0.08,0.07,0.16,0.13,0.23,0.21
	c1.71,1.66,2.9,3.69,2.9,7.07l0,6.69l0.31,26.27l34.88-0.04l-2.03-0.01l-0.13-22.18c0-0.25,0.01-0.48,0.02-0.71
	c0.09-1.68,0.51-2.81,1.08-3.76c1.29-2.13,2.9-3.08,4.51-3.08h2.57c1.33,0,2.66,0.72,3.78,2.32c0.86,1.23,1.25,2.18,1.35,4.97
	l0.32,22.44l16.79-0.02l0-0.14l-0.19,0.03l-0.8-59.06l-13.36-0.14l-0.07-6.83l8.12-0.02l-5.51-4.48l-68.99-64.39l-45.38,44.07
	 M669.91,398.48l-15.36,0.07v-3.34l1.26,0l-0.04-4.94l-0.05-6.13l-0.03-4.05c0-0.32,0.03-0.6,0.07-0.87c0.14-0.99,0.51-1.7,1.01-2.3
	c1.26-1.51,2.82-2.18,4.39-2.18h2.5c1.3,0,2.59,0.51,3.68,1.64c0.73,0.76,1.12,1.37,1.27,2.83c0.02,0.21,0.04,0.44,0.05,0.69
	l0.08,4.23l0.12,6.13l0.1,4.89l1.06,0L669.91,398.48z M706.91,367.56c-0.09,0.19-0.17,0.38-0.26,0.56
	c-1.01,1.99-2.44,3.69-4.17,4.99c-2.27,1.71-5.03,2.73-8.03,2.73c-2.59,0-5-0.76-7.07-2.07c-1.94-1.22-3.57-2.93-4.74-4.96
	c-1.14-1.97-1.84-4.24-1.98-6.68c-0.02-0.29-0.04-0.59-0.04-0.89c0-2.14,0.45-4.16,1.23-5.99c0.15-0.34,0.3-0.69,0.47-1.02
	c2.33-4.59,6.91-7.72,12.2-7.72c5.16,0,9.65,2.99,12.02,7.4c1.09,2.02,1.72,4.34,1.78,6.81c0,0.13,0.02,0.25,0.02,0.38
	C708.34,363.43,707.82,365.61,706.91,367.56z M735.91,397.83l-15.36,0.07v-3.34l1.06,0l-0.04-5.52l-0.05-6.13l-0.03-4.05
	c0-0.32,0.03-0.6,0.07-0.87c0.14-0.99,0.51-1.7,1.01-2.3c1.26-1.51,2.82-2.18,4.39-2.18h2.5c1.3,0,2.59,0.51,3.68,1.64
	c0.73,0.76,1.12,1.37,1.27,2.83c0.02,0.21,0.04,0.44,0.05,0.69l0.08,4.23l0.12,6.13l0.11,5.48l1.24,0L735.91,397.83z"/>
<g>
	<path class="st15" d="M717.9,493.25c1.05-0.25,6.03-1.44,1.38-1.06c0.31-1.08,0.77-3.01-0.28-1.74c-0.01-0.45-0.02-0.95-0.03-1.51
		c-0.07-2.73-0.78,0.3-1.2,2.39c-0.25-2.18-0.83-6.78-1.11-3.84c-0.1,1.05-0.17,1.89-0.21,2.56c-0.7-0.73-1.57-1.62-2.64-2.72
		c-3.24-3.31,0.61,1.51,2.57,3.92c0,0.04,0,0.07,0,0.1c-5.15-3.75-0.58,0.32,0.69,1.44l0.11,0.25l0.54,0.23c0,0.01,0,0.02,0,0.02
		s0.01,0,0.03-0.01l0.09,0.04L717.9,493.25z"/>
	<path class="st15" d="M799.6,518.45c1.05-0.25,6.03-1.44,1.38-1.06c0.31-1.08,0.77-3.01-0.28-1.74c-0.01-0.45-0.02-0.95-0.03-1.51
		c-0.07-2.73-0.78,0.3-1.2,2.39c-0.25-2.18-0.83-6.78-1.11-3.84c-0.1,1.05-0.17,1.89-0.21,2.56c-0.7-0.73-1.57-1.62-2.64-2.72
		c-3.24-3.31,0.61,1.51,2.57,3.92c0,0.04,0,0.07,0,0.1c-5.15-3.75-0.58,0.32,0.69,1.44l0.11,0.25l0.54,0.23c0,0.01,0,0.02,0,0.02
		s0.01,0,0.03-0.01l0.09,0.04L799.6,518.45z"/>
	<path class="st15" d="M703.47,519.75c1.05-0.25,6.03-1.44,1.38-1.06c0.31-1.08,0.77-3.01-0.28-1.74c-0.01-0.45-0.02-0.95-0.03-1.51
		c-0.07-2.73-0.78,0.3-1.2,2.39c-0.25-2.18-0.83-6.78-1.11-3.84c-0.1,1.05-0.17,1.89-0.21,2.56c-0.7-0.73-1.57-1.62-2.64-2.72
		c-3.24-3.31,0.61,1.51,2.57,3.92c0,0.04,0,0.07,0,0.1c-5.15-3.75-0.58,0.32,0.69,1.44l0.11,0.25l0.54,0.23c0,0.01,0,0.02,0,0.02
		s0.01,0,0.03-0.01l0.09,0.04L703.47,519.75z"/>
	<path class="st0" d="M720.85,491.84c0.81-0.34,4.65-1.95,1.09-1.11c0.27-1.01,0.69-2.81-0.15-1.55c0.01-0.4,0.02-0.86,0.03-1.36
		c0.04-2.46-0.6,0.35-1,2.29c-0.11-1.94-0.39-6.04-0.71-3.35c-0.11,0.96-0.19,1.73-0.25,2.34c-0.51-0.58-1.14-1.3-1.92-2.17
		c-2.36-2.65,0.41,1.3,1.82,3.27c0,0.03,0,0.06-0.01,0.09c-3.79-2.84-0.45,0.36,0.47,1.23l0.08,0.21l0.4,0.15c0,0.01,0,0.02,0,0.02
		s0.01,0,0.02-0.01l0.07,0.03L720.85,491.84z"/>
	<g>
		<path class="st16" d="M494.3,443.07c1.2-1.41,6.88-8.11,1.38-3.43c0.07-2.59,0.09-7.11-0.83-3.51c-0.13-0.96-0.29-2.02-0.46-3.21
			c-0.85-5.81-0.85,1.29-0.78,6.13c-0.9-4.47-2.9-13.88-2.41-7.33c0.17,2.34,0.33,4.21,0.46,5.69c-1.05-0.98-2.34-2.18-3.95-3.64
			c-4.84-4.42,1.15,2.73,4.19,6.28c0.01,0.08,0.02,0.15,0.02,0.23c-7.26-3.77-0.61,1.18,1.23,2.52l0.21,0.44l0.71,0.05
			c0,0.03,0,0.04,0,0.04s0.01-0.02,0.04-0.04l0.12,0.01L494.3,443.07z"/>
	</g>
	<g>
		<path class="st16" d="M796.38,495.77c1.2-1.41,6.88-8.11,1.38-3.43c0.07-2.59,0.09-7.11-0.83-3.51c-0.13-0.96-0.29-2.02-0.46-3.21
			c-0.85-5.81-0.85,1.29-0.78,6.13c-0.9-4.47-2.9-13.88-2.41-7.33c0.17,2.34,0.33,4.21,0.46,5.69c-1.05-0.98-2.34-2.18-3.95-3.64
			c-4.84-4.42,1.15,2.73,4.19,6.28c0.01,0.08,0.02,0.15,0.02,0.23c-7.26-3.77-0.61,1.18,1.23,2.52l0.21,0.44l0.71,0.05
			c0,0.03,0,0.04,0,0.04s0.01-0.02,0.04-0.04l0.12,0.01L796.38,495.77z"/>
	</g>
	<g>
		<path class="st16" d="M839.16,407.89c-1.05-0.44-6.03-2.58-1.49-1.45c-0.46-1.32-1.19-3.64,0.01-2c-0.06-0.52-0.12-1.11-0.19-1.76
			c-0.33-3.19,0.79,0.47,1.51,2.97c-0.08-2.51-0.2-7.82,0.5-4.33c0.25,1.25,0.44,2.24,0.58,3.03c0.57-0.75,1.27-1.66,2.15-2.79
			c2.64-3.4-0.36,1.67-1.9,4.21c0.01,0.04,0.01,0.08,0.02,0.12c4.41-3.62,0.61,0.47-0.45,1.58l-0.07,0.27l-0.48,0.19
			c0,0.01,0,0.02,0,0.02s-0.01,0-0.03-0.01l-0.08,0.03L839.16,407.89z"/>
	</g>
	<g>
		<path class="st16" d="M558.23,422.52c1.2-1.41,6.88-8.11,1.38-3.43c0.07-2.59,0.09-7.11-0.83-3.51c-0.13-0.96-0.29-2.02-0.46-3.21
			c-0.85-5.81-0.85,1.29-0.78,6.13c-0.9-4.47-2.9-13.88-2.41-7.33c0.17,2.34,0.33,4.21,0.46,5.69c-1.05-0.98-2.34-2.18-3.95-3.64
			c-4.84-4.42,1.15,2.73,4.19,6.28c0.01,0.08,0.02,0.15,0.02,0.23c-7.26-3.77-0.61,1.18,1.23,2.52l0.21,0.44l0.71,0.05
			c0,0.03,0,0.04,0,0.04s0.01-0.02,0.04-0.04l0.12,0.01L558.23,422.52z"/>
	</g>
	<g>
		<path class="st16" d="M553.48,423c-1.05-0.44-6.03-2.58-1.49-1.45c-0.46-1.32-1.19-3.64,0.01-2c-0.06-0.52-0.12-1.11-0.19-1.76
			c-0.33-3.19,0.79,0.47,1.51,2.97c-0.08-2.51-0.2-7.82,0.5-4.33c0.25,1.25,0.44,2.24,0.58,3.03c0.57-0.75,1.27-1.66,2.15-2.79
			c2.64-3.4-0.36,1.67-1.9,4.21c0.01,0.04,0.01,0.08,0.02,0.12c4.41-3.62,0.61,0.47-0.45,1.58l-0.07,0.27l-0.48,0.19
			c0,0.01,0,0.02,0,0.02s-0.01,0-0.03-0.01l-0.08,0.03L553.48,423z"/>
	</g>
	<g>
		<path class="st15" d="M768.34,454.29c1.28-1.25,7.33-7.19,1.42-3.07c0.01-2.34-0.08-6.44-0.99-3.2c-0.17-0.87-0.36-1.84-0.58-2.92
			c-1.08-5.28-0.9,1.15-0.7,5.53c-1.1-4.08-3.52-12.64-2.82-6.7c0.25,2.13,0.46,3.82,0.64,5.16c-1.17-0.91-2.62-2.03-4.41-3.39
			c-5.41-4.12,1.33,2.5,4.75,5.79c0.01,0.07,0.02,0.14,0.03,0.2c-8.04-3.59-0.64,1.05,1.41,2.31l0.24,0.4l0.78,0.06
			c0,0.02,0,0.04,0,0.04s0.01-0.01,0.04-0.04l0.13,0.01L768.34,454.29z"/>
		<path class="st0" d="M776.07,457.66c2.23-1.57,12.74-9.07,3.3-4.43c1.17-3.72,3.07-10.27,0.33-5.41c0.21-1.44,0.45-3.04,0.7-4.84
			c1.25-8.75-1.7,1.53-3.6,8.57c0.62-6.84,1.8-21.24-0.25-11.56c-0.73,3.46-1.3,6.23-1.73,8.42c-1.02-1.83-2.29-4.07-3.87-6.82
			c-4.77-8.29,0.44,4.41,3.12,10.74c-0.02,0.12-0.04,0.23-0.06,0.34c-8.34-8.29-1.32,1.47,0.63,4.14l0.1,0.72l0.95,0.34
			c-0.01,0.04-0.01,0.07-0.01,0.07s0.02-0.02,0.07-0.05l0.16,0.06L776.07,457.66z"/>
		<path class="st15" d="M589.2,443.75c-1.44-1.06-8.25-6.12-1.83-2.85c-0.33-2.32-0.81-6.39,0.54-3.31
			c0.05-0.89,0.11-1.87,0.18-2.98c0.34-5.38,1.05,1.01,1.45,5.38c0.53-4.19,1.75-13,1.88-7.02c0.04,2.14,0.06,3.85,0.07,5.2
			c1.03-1.06,2.32-2.37,3.91-3.96c4.8-4.82-0.98,2.66-3.91,6.39c0,0.07,0,0.14,0,0.21c7.47-4.65,0.78,0.96-1.08,2.49l-0.18,0.43
			l-0.77,0.16c0,0.02,0,0.04,0,0.04s-0.02-0.01-0.04-0.03l-0.13,0.03L589.2,443.75z"/>
		<path class="st0" d="M583.02,444.06c-2.42-1.25-13.86-7.24-3.87-3.94c-1.67-3.53-4.45-9.75-1.07-5.32
			c-0.41-1.4-0.86-2.95-1.36-4.7c-2.43-8.49,1.89,1.29,4.74,8c-1.55-6.69-4.7-20.79-1.34-11.48c1.2,3.33,2.14,5.99,2.87,8.1
			c0.76-1.95,1.71-4.35,2.9-7.28c3.59-8.87,0.17,4.43-1.61,11.07c0.04,0.11,0.07,0.22,0.11,0.32c7.12-9.36,1.51,1.28-0.06,4.18
			l0,0.73l-0.9,0.47c0.01,0.04,0.02,0.06,0.02,0.06s-0.03-0.01-0.07-0.04l-0.15,0.08L583.02,444.06z"/>
		<path class="st15" d="M805.82,440.13c1.07-0.81,6.09-4.68,1.18-2c0.01-1.52-0.06-4.19-0.82-2.08c-0.14-0.57-0.3-1.2-0.49-1.9
			c-0.9-3.44-0.75,0.75-0.58,3.6c-0.92-2.65-2.92-8.22-2.35-4.35c0.21,1.38,0.39,2.49,0.53,3.36c-0.97-0.59-2.18-1.32-3.67-2.21
			c-4.5-2.68,1.11,1.63,3.95,3.77c0.01,0.05,0.02,0.09,0.03,0.13c-6.69-2.33-0.53,0.69,1.17,1.51l0.2,0.26l0.65,0.04
			c0,0.02,0,0.03,0,0.03s0.01-0.01,0.03-0.02l0.11,0.01L805.82,440.13z"/>
		<path class="st0" d="M810.94,439.77c1.85-1.02,10.59-5.9,2.74-2.88c0.97-2.42,2.55-6.68,0.27-3.52c0.18-0.94,0.37-1.98,0.58-3.15
			c1.04-5.69-1.41,1-2.99,5.58c0.52-4.45,1.5-13.81-0.21-7.52c-0.61,2.25-1.08,4.05-1.44,5.47c-0.85-1.19-1.91-2.65-3.22-4.43
			c-3.97-5.39,0.37,2.87,2.59,6.99c-0.02,0.08-0.03,0.15-0.05,0.22c-6.93-5.39-1.1,0.96,0.53,2.69l0.08,0.47l0.79,0.22
			c-0.01,0.03-0.01,0.04-0.01,0.04s0.02-0.01,0.06-0.03l0.14,0.04L810.94,439.77z"/>
		<path class="st15" d="M614.14,446.12c-1.49-0.67-8.55-3.89-2.12-2.18c-0.65-1.98-1.69-5.49,0.02-3.01
			c-0.08-0.79-0.17-1.67-0.27-2.66c-0.47-4.8,1.12,0.7,2.14,4.48c-0.12-3.79-0.28-11.78,0.71-6.53c0.36,1.88,0.62,3.38,0.83,4.57
			c0.8-1.12,1.8-2.51,3.04-4.2c3.74-5.12-0.52,2.52-2.69,6.34c0.01,0.06,0.02,0.12,0.03,0.18c6.25-5.46,0.86,0.7-0.64,2.39
			l-0.1,0.41l-0.69,0.28c0,0.02,0.01,0.04,0.01,0.04s-0.02-0.01-0.05-0.02l-0.12,0.05L614.14,446.12z"/>
		<path class="st0" d="M608.61,450.35c1.71-2.12,9.76-12.23,1.95-5.17c0.1-3.9,0.13-10.72-1.17-5.29c-0.19-1.44-0.41-3.05-0.65-4.84
			c-1.21-8.75-1.21,1.94-1.1,9.23c-1.28-6.74-4.11-20.92-3.42-11.04c0.25,3.53,0.46,6.35,0.65,8.57c-1.48-1.47-3.32-3.28-5.6-5.49
			c-6.86-6.66,1.64,4.11,5.95,9.47c0.01,0.12,0.02,0.23,0.03,0.34c-10.29-5.68-0.87,1.78,1.75,3.8l0.29,0.66l1.01,0.07
			c0,0.04,0,0.07,0,0.07s0.02-0.02,0.05-0.06l0.17,0.01L608.61,450.35z"/>
	</g>
</g>
</svg>
