<?xml version="1.0" encoding="UTF-8"?>
<svg id="Calque_2" data-name="Calque 2" xmlns="http://www.w3.org/2000/svg" viewBox="0 0 350.94 151.61">
  <defs>
    <style>
      .cls-1 {
        fill: #212121;
      }
    </style>
  </defs>
  <g id="Calque_2-2" data-name="Calque 2">
    <g>
      <path class="cls-1" d="m17,21q0,5.5,5.5,5.5t5.5-5.2v-12.8c0-4,0-8,6-8h5c6,0,6,4,6,8v55c0,4,0,8-6,8h-5c-6,0-6-4-6-8v-15c0-6.6-.4-7-5.5-7h-1.1c-3.2,0-4.4,0-4.4,5.1v16.9c0,4,0,8-6,8h-5c-6,0-6-4-6-8V8.5C0,4.5,0,.5,6,.5h5c6,0,6,4,6,8v12.5Z"/>
      <path class="cls-1" d="m65.6,53.2c.2,2.2,2.2,3.3,4.2,3.3,5.7,0,7.6-.2,9.7-.2,4.2,0,5.5,1.2,5.5,4.2v7c0,3-1,4-4,4h-26.4c-6,0-6-6-6-8V8.5c0-4,0-8,6-8h25.8c2.5,0,4.7,1,4.7,3v8.5c0,2.4-2,2.5-4.5,2.5-3.9,0-7-.2-9.5-.2-5.5,0-5.5,2-5.5,5.2,0,6.5,0,8.2,5,8.2,6.2,0,7.2-.2,9.5-.2,3.5,0,3.7,3.5,3.7,4.6v6.4c0,3-2.1,3.2-4.6,3.2-5.1,0-8.3-.2-10.4-.2-3.2,0-3.2,1.4-3.2,4.7v7Z"/>
      <path class="cls-1" d="m118.4,57c4.2,0,4.7,2.2,4.7,5.2v1.3c0,4,0,8-6,8h-22.6c-6,0-6-4-6-8V8.5c0-4,0-8,6-8h5c6,0,6,4,6,8v43.1c0,2.4,0,5.5,3.1,5.6,5.3,0,7.7-.2,9.8-.2Z"/>
      <path class="cls-1" d="m155.3,57c4.2,0,4.7,2.2,4.7,5.2v1.3c0,4,0,8-6,8h-22.6c-6,0-6-4-6-8V8.5c0-4,0-8,6-8h5c6,0,6,4,6,8v43.1c0,2.4,0,5.5,3.1,5.6,5.3,0,7.7-.2,9.8-.2Z"/>
      <path class="cls-1" d="m161.9,27.9c0-16.1,1.5-27.9,22.6-27.9s21.5,11.6,21.5,27.5c0,6,.3,11.9.3,17.2,0,15.8-2.5,27.3-21.8,27.3-21.1,0-22.6-11.8-22.6-27.8,0-2.7.1-5.4.1-8.2s-.1-5.5-.1-8.1Zm17.1-8.4v31.5c0,3,0,7,5,7s5-4,5-7v-31.5c0-2.5,0-5.5-5-5.5s-5,3-5,5.5Z"/>
      <path class="cls-1" d="m225.8,58.1c0,2.7,0,2.9-1.7,8.1-1.5,4.7-3.2,5.8-6,5.8h-3.3c-1.8,0-2.4-.1-2.4-1.9,0-2.3,2.6-2.3,2.6-6.1,0-2-.6-2-2-2-2.2,0-4.2-2-4.2-4v-10c0-4,2.8-4,4.6-4h8.1c2.3,0,4.3,0,4.3,4v10.1Z"/>
    </g>
    <g>
      <path class="cls-1" d="m269.74,63.24c0,4,0,8-6,8h-5c-6,0-6-4-6-8V8.24c0-4,0-8,6-8h5c6,0,6,4,6,8v55Z"/>
      <path class="cls-1" d="m289.74,14.84c0,2.7,0,2.9-1.7,8.1-1.5,4.7-3.2,5.8-6,5.8h-3.3c-1.8,0-2.4-.1-2.4-1.9,0-2.3,2.6-2.3,2.6-6.1,0-2-.6-2-2-2-2.2,0-4.2-2-4.2-4V4.74c0-4,2.8-4,4.6-4h8.1c2.3,0,4.3,0,4.3,4v10.1Z"/>
      <path class="cls-1" d="m331.44,5.84c2.2-5.2,4.5-5.6,8.1-5.6h5.4c6,0,6,4,6,8v55c0,4,0,8-6,8h-5c-6,0-6-4-6-8v-27.5c0-.6-.2-1-.5-1s-.6.4-.9,1c-7.1,14.1-7.3,17.5-10.6,17.5s-3.6-3.4-10.6-17.5c-.3-.6-.7-1-.9-1-.3,0-.5.4-.5,1v27.5c0,4,0,8-6,8h-5c-6,0-6-4-6-8V8.24c0-4,0-8,6-8h5.3c3.7,0,6,.5,8.2,5.6l7.5,17.7c.8,1.8,1.3,2.8,2,2.8s1.2-1,2-2.8l7.5-17.7Z"/>
    </g>
    <g>
      <path class="cls-1" d="m30.55,136.61c4.2,0,4.7,2.2,4.7,5.2v1.3c0,4,0,8-6,8H6.65c-6,0-6-4-6-8v-55c0-4,0-8,6-8h5c6,0,6,4,6,8v43.1c0,2.4,0,5.5,3.1,5.6,5.3,0,7.7-.2,9.8-.2Z"/>
      <path class="cls-1" d="m86.75,146.11c0,4.6-3.1,5-8.8,5h-5.3c-6.2,0-3.1-15-7.1-15h-8c-4,0-1.7,15-7.7,15h-4.7c-5.2,0-8.3-.4-8.3-5,0-6,2.4-11.3,10.2-58,.8-5,2.8-8,6.8-8h15.4c4,0,6,3,7,8,6.8,41,10.5,52,10.5,58Zm-29.1-26.6c0,1.6.7,1.6,3.9,1.6s3.9,0,3.9-1.5c0-.4,0-.9-.1-1.6-1.2-9.8-1.6-21.9-3.8-21.9s-2.8,12-3.8,21.9c-.1.6-.1,1.1-.1,1.5Z"/>
      <path class="cls-1" d="m133.55,130.81c0,12.4-1.4,20.8-21.5,20.8-21.1,0-22.6-8.5-22.6-21.5,0-31.6.1-42,.1-42,0-4,0-8,6-8h5c6,0,6,4,6,8v44c0,3,0,5.5,5.5,5.5,4.5,0,4.5-2.5,4.5-5.5v-44.1c0-3.9,0-7.9,6-7.9h5c6,0,6,4,6,7.9v42.8Z"/>
      <path class="cls-1" d="m162.45,80.11c14.9,0,19.1,10.7,19.1,22.5,0,7.2-.1,11.8-5.8,16.6-2.8,2.4-4.6,1-4.6,4.8,0,4.1,1.3,9.1,4.6,9.1,1.8,0,2.9-.5,3.2-.5,3.2,0,3.7,2.7,3.7,7.3,0,2.2-.1,4.9-.1,7.9,0,2-.8,3.8-6,3.8-9.2,0-13.9-6.8-15.8-14.2-2.4-9.3-5.4-10.9-6-10.9-.8,0-.8,1.6-.8,2.4v14.2c0,4,0,8-6,8h-7c-4,0-4-4-4-8v-55c0-4,0-8,6-8h19.5Zm-8.6,17.8c0,1.3.1,3.6.1,5.7s-.1,3.8-.1,5c0,3.3.6,3.9,4.6,3.9,4.5,0,5.5-4.4,5.5-8.9s-1-10-5.5-10c-4,0-4.6.7-4.6,4.3Z"/>
      <path class="cls-1" d="m202.45,132.81c.2,2.2,2.2,3.3,4.2,3.3,5.7,0,7.6-.2,9.7-.2,4.2,0,5.5,1.2,5.5,4.2v7c0,3-1,4-4,4h-26.4c-6,0-6-6-6-8v-55c0-4,0-8,6-8h25.8c2.5,0,4.7,1,4.7,3v8.5c0,2.4-2,2.5-4.5,2.5-3.9,0-7-.2-9.5-.2-5.5,0-5.5,2-5.5,5.2,0,6.5,0,8.2,5,8.2,6.2,0,7.2-.2,9.5-.2,3.5,0,3.7,3.5,3.7,4.6v6.4c0,3-2.1,3.2-4.6,3.2-5.1,0-8.3-.2-10.4-.2-3.2,0-3.2,1.4-3.2,4.7v7Z"/>
      <path class="cls-1" d="m256.35,112.11c.3,0,.5-.3.5-1v-23c0-4,0-8,6-8h5c6,0,6,4,6,8v55c0,4,0,8-6,8-9,0-9.7-1.6-11.1-4.6l-13.3-28.9c-.3-.6-.6-1-.8-1-.3,0-.4.4-.4,1l.1,25.5c0,4,0,8-6,8h-5c-6,0-6-4-6-8v-55c0-4,0-8,6-8h5.3c3.3,0,4.4.4,5.9,3.5l12.9,27.5c.3.7.6,1,.9,1Z"/>
      <path class="cls-1" d="m307.35,79.61c2.5,0,3.8,1.2,3.8,3.2v8.8c0,1,0,2.5-3.8,2.5-2,0-2.1-.2-3.2-.2-9.5,0-9.5,17.3-9.5,20.9,0,3.4.1,22,9.1,22,1.3,0,1.3-.2,3.6-.2,3.8,0,3.8,3.6,3.8,4.6v6.7c0,2.5-1.3,3.7-3.8,3.7-14.2,0-30.7-6.5-30.7-37,0-28.5,16.5-35,30.7-35Z"/>
      <path class="cls-1" d="m331.35,132.81c.2,2.2,2.2,3.3,4.2,3.3,5.7,0,7.6-.2,9.7-.2,4.2,0,5.5,1.2,5.5,4.2v7c0,3-1,4-4,4h-26.4c-6,0-6-6-6-8v-55c0-4,0-8,6-8h25.8c2.5,0,4.7,1,4.7,3v8.5c0,2.4-2,2.5-4.5,2.5-3.9,0-7-.2-9.5-.2-5.5,0-5.5,2-5.5,5.2,0,6.5,0,8.2,5,8.2,6.2,0,7.2-.2,9.5-.2,3.5,0,3.7,3.5,3.7,4.6v6.4c0,3-2.1,3.2-4.6,3.2-5.1,0-8.3-.2-10.4-.2-3.2,0-3.2,1.4-3.2,4.7v7Z"/>
    </g>
  </g>
</svg>