<?xml version="1.0" encoding="UTF-8"?>
<svg id="Calque_2" data-name="Calque 2" xmlns="http://www.w3.org/2000/svg" viewBox="0 0 410.78 103.26">
  <defs>
    <style>
      .cls-1 {
        fill: #212121;
      }
    </style>
  </defs>
  <g id="Calque_2-2" data-name="Calque 2">
    <g>
      <path class="cls-1" d="m21.87,0c1.78,0,2.71,1.72,2.71,4.59v12.62c0,1.43,0,3.59-2.71,3.59-1.42,0-1.5-.29-2.28-.29-6.77,0-6.77,24.81-6.77,29.97,0,4.88.07,31.55,6.48,31.55.93,0,.93-.29,2.56-.29,2.71,0,2.71,5.16,2.71,6.6v9.61c0,3.59-.93,5.31-2.71,5.31-10.12,0-21.87-9.32-21.87-53.06C0,9.32,11.75,0,21.87,0Z"/>
      <path class="cls-1" d="m38.96,30.12q0,7.89,3.92,7.89t3.92-7.46V12.19c0-5.74,0-11.47,4.27-11.47h3.56c4.27,0,4.27,5.74,4.27,11.47v78.88c0,5.74,0,11.47-4.27,11.47h-3.56c-4.27,0-4.27-5.74-4.27-11.47v-21.51c0-9.47-.28-10.04-3.92-10.04h-.78c-2.28,0-3.13,0-3.13,7.31v24.24c0,5.74,0,11.47-4.27,11.47h-3.56c-4.27,0-4.27-5.74-4.27-11.47V12.19c0-5.74,0-11.47,4.27-11.47h3.56c4.27,0,4.27,5.74,4.27,11.47v17.93Z"/>
      <path class="cls-1" d="m73.58,76.3c.14,3.16,1.57,4.73,2.99,4.73,4.06,0,5.41-.29,6.91-.29,2.99,0,3.92,1.72,3.92,6.02v10.04c0,4.3-.71,5.74-2.85,5.74h-18.81c-4.27,0-4.27-8.6-4.27-11.47V12.19c0-5.74,0-11.47,4.27-11.47h18.38c1.78,0,3.35,1.43,3.35,4.3v12.19c0,3.44-1.42,3.59-3.21,3.59-2.78,0-4.99-.29-6.77-.29-3.92,0-3.92,2.87-3.92,7.46,0,9.32,0,11.76,3.56,11.76,4.42,0,5.13-.29,6.77-.29,2.49,0,2.64,5.02,2.64,6.6v9.18c0,4.3-1.5,4.59-3.28,4.59-3.63,0-5.91-.29-7.41-.29-2.28,0-2.28,2.01-2.28,6.74v10.04Z"/>
      <path class="cls-1" d="m111.19,0c1.78,0,2.71,1.72,2.71,4.59v12.62c0,1.43,0,3.59-2.71,3.59-1.42,0-1.5-.29-2.28-.29-6.77,0-6.77,24.81-6.77,29.97,0,4.88.07,31.55,6.48,31.55.93,0,.93-.29,2.56-.29,2.71,0,2.71,5.16,2.71,6.6v9.61c0,3.59-.93,5.31-2.71,5.31-10.12,0-21.87-9.32-21.87-53.06C89.32,9.32,101.07,0,111.19,0Z"/>
      <path class="cls-1" d="m149.01,98.24c0,2.58-1.14,4.3-3.7,4.3h-3.7c-4.56,0-4.84-2.01-6.41-11.33-3.21-18.79-4.42-31.69-6.48-31.69-.43,0-.57,1.29-.57,3.16s.14,4.45.14,6.88v21.51c0,5.74,0,11.47-4.27,11.47h-3.56c-4.27,0-4.27-5.74-4.27-11.47V12.19c0-5.74,0-11.47,4.27-11.47h3.56c4.27,0,4.27,5.74,4.27,11.47q0,25.38.36,25.38c2.14,0,4.13-16.92,4.84-20.36,2.35-11.33,2.56-16.49,6.2-16.49h4.13c2.42,0,4.42,0,4.42,4.02,0,1.72-.36,4.16-1.21,7.6-2.28,9.47-8.55,32.12-8.55,32.99,0,.57.28,1.43.78,3.59.71,3.16,9.55,42.02,9.76,49.33Z"/>
      <path class="cls-1" d="m193.1,8.75c1.57-7.46,3.21-8.03,5.77-8.03h3.85c4.27,0,4.27,5.74,4.27,11.47v78.88c0,5.74,0,11.47-4.27,11.47h-3.56c-4.27,0-4.27-5.74-4.27-11.47v-39.44c0-.86-.14-1.43-.36-1.43s-.43.57-.64,1.43c-5.06,20.22-5.2,25.1-7.55,25.1s-2.56-4.88-7.55-25.1c-.21-.86-.5-1.43-.64-1.43-.21,0-.36.57-.36,1.43v39.44c0,5.74,0,11.47-4.27,11.47h-3.56c-4.27,0-4.27-5.74-4.27-11.47V12.19c0-5.74,0-11.47,4.27-11.47h3.78c2.64,0,4.27.72,5.84,8.03l5.34,25.38c.57,2.58.93,4.02,1.42,4.02s.85-1.43,1.42-4.02l5.34-25.38Z"/>
      <path class="cls-1" d="m223.95,102.54c-4.27,0-4.27-5.74-4.27-11.47v-21.66c0-7.74-3.7-25.67-4.99-31.69l-.21-1c-1.42-6.45-5.63-28.25-5.63-32.27,0-3.73,1.57-3.73,2.07-3.73h8.12c2.28,0,2.99,6.17,3.56,11.47.5,4.59,2.85,20.65,2.99,21.94.07,1,.43,1.58.71,1.58.36,0,.64-.43.71-1.43.07-1.29,2.21-17.5,2.78-22.09.64-5.31,1.5-11.47,4.06-11.47h6.34c2.14,0,2.92,0,2.92,3.73,0,4.02-4.13,25.96-5.56,32.27-.64,2.87-1.85,9.47-3.35,16.92-2.21,11.19-2.42,12.62-2.42,25.24v12.76c0,5.59,0,10.9-4.27,10.9h-3.56Z"/>
      <path class="cls-1" d="m280.72,92.5c-1.35,9.9-2.99,10.04-5.56,10.04h-3.92c-4.06,0-4.63-4.16-5.41-11.47-1.5-14.48-7.19-82.46-7.19-86.62,0-2.87.21-3.73,1.78-3.73h7.69c1.85,0,2.21,2.15,2.49,6.17l4.63,62.1c0,.43.07.72.29.72s.28-.29.36-.72c.07-.72,2.28-33.42,2.28-35.71-.57-7.6-1.92-23.52-2.07-26.82-.07-.72-.07-1.43-.07-2.01,0-2.58.43-3.73,1.71-3.73,1.21,0,3.28.29,4.7.29.64,0,5.49-.29,6.13-.29,1.14,0,1.64,1,1.64,3.73,0,.57-.07,1.29-.07,2.01-.14,3.3-1.21,19.36-1.21,26.96,0,2.58,3.21,35.57,3.21,35.57,0,.43.07.72.28.72s.29-.29.36-.72l3.06-62.53c.07-3.59.71-5.74,2.35-5.74h8.33c1.14,0,1.35,1,1.35,3.44,0,4.45-4.77,72.42-6.2,86.91-.64,6.88-1,11.47-4.63,11.47h-5.13c-2.71,0-3.92,0-5.06-10.04-1-8.46-2.28-19.07-3.13-19.07-.5,0-2.07,12.19-2.99,19.07Z"/>
      <path class="cls-1" d="m309.56,40.01c0-23.09,1.07-40.01,16.1-40.01s15.32,16.64,15.32,39.44c0,8.6.21,17.07.21,24.67,0,22.66-1.78,39.15-15.53,39.15-15.03,0-16.1-16.92-16.1-39.87,0-3.87.07-7.74.07-11.76s-.07-7.89-.07-11.62Zm12.18-12.05v45.18c0,4.3,0,10.04,3.56,10.04s3.56-5.74,3.56-10.04V27.97c0-3.59,0-7.89-3.56-7.89s-3.56,4.3-3.56,7.89Z"/>
      <path class="cls-1" d="m361.56.72c10.61,0,13.61,15.35,13.61,32.27,0,10.33-.07,16.92-4.13,23.81-1.99,3.44-3.28,1.43-3.28,6.88,0,5.88.93,13.05,3.28,13.05,1.28,0,2.07-.72,2.28-.72,2.28,0,2.64,3.87,2.64,10.47,0,3.16-.07,7.03-.07,11.33,0,2.87-.57,5.45-4.27,5.45-6.55,0-9.9-9.75-11.25-20.36-1.71-13.34-3.85-15.63-4.27-15.63-.57,0-.57,2.29-.57,3.44v20.36c0,5.74,0,11.47-4.27,11.47h-4.99c-2.85,0-2.85-5.74-2.85-11.47V12.19c0-5.74,0-11.47,4.27-11.47h13.89Zm-6.13,25.53c0,1.86.07,5.16.07,8.17s-.07,5.45-.07,7.17c0,4.73.43,5.59,3.28,5.59,3.21,0,3.92-6.31,3.92-12.76s-.71-14.34-3.92-14.34c-2.85,0-3.28,1-3.28,6.17Z"/>
      <path class="cls-1" d="m410.78,98.24c0,2.58-1.14,4.3-3.7,4.3h-3.7c-4.56,0-4.84-2.01-6.41-11.33-3.21-18.79-4.42-31.69-6.48-31.69-.43,0-.57,1.29-.57,3.16s.14,4.45.14,6.88v21.51c0,5.74,0,11.47-4.27,11.47h-3.56c-4.27,0-4.27-5.74-4.27-11.47V12.19c0-5.74,0-11.47,4.27-11.47h3.56c4.27,0,4.27,5.74,4.27,11.47q0,25.38.36,25.38c2.14,0,4.13-16.92,4.84-20.36,2.35-11.33,2.56-16.49,6.2-16.49h4.13c2.42,0,4.42,0,4.42,4.02,0,1.72-.36,4.16-1.21,7.6-2.28,9.47-8.55,32.12-8.55,32.99,0,.57.28,1.43.78,3.59.71,3.16,9.55,42.02,9.76,49.33Z"/>
    </g>
  </g>
</svg>